<svg xmlns="http://www.w3.org/2000/svg" width="21" height="20"><path d="M20.58 4.46l-1.21 8.912c-.18.922-1.02 1.635-1.88 1.635H6.61c-.86 0-1.7-.713-1.88-1.635L3.26 3.085c-.14-.732-.15-.976-.13-1.055H1a1.001 1.001 0 0 1 0-2h4c.55 0 1 .448 1 1 0 .517-.4.926-.9.98h13.97c1.1 0 1.77 1.131 1.51 2.45zm-3.18 8.518s0-.003.01-.014l1.18-8.788.03-.198H5.42l1.31 9zM7.25 15.986a1.875 1.875 0 1 1-.01 3.75 1.875 1.875 0 0 1 .01-3.75zm9 0a1.875 1.875 0 1 1-.01 3.75 1.875 1.875 0 0 1 .01-3.75z" fill="#343434"/></svg>