<svg id="SvgjsSvg1023" xmlns="http://www.w3.org/2000/svg" version="1.1" xmlns:xlink="http://www.w3.org/1999/xlink" xmlns:svgjs="http://svgjs.com/svgjs" width="48" height="49"><defs id="SvgjsDefs1024"></defs><path id="SvgjsPath1025" d="M460.482 1349.5C460.482 1362.59 471.093 1373.2 484.18300000000005 1373.2C497.27200000000005 1373.2 507.88500000000005 1362.5900000000001 507.88500000000005 1349.5C507.88500000000005 1336.41 497.27200000000005 1325.8 484.18300000000005 1325.8C471.0930000000001 1325.8 460.482 1336.4099999999999 460.482 1349.5ZM499.578 1349C499.31899999999996 1349.39 498.69899999999996 1350.04 497.45099999999996 1350.04C496.561 1350.04 495.24999999999994 1349.6599999999999 494.195 1349.2C494.424 1351.72 493.92199999999997 1354.6000000000001 492.61899999999997 1357.55C493.09099999999995 1358.5 493.291 1359.55 493.13599999999997 1360.6299999999999C492.64799999999997 1364.01 488.85299999999995 1365.86 484.61199999999997 1365.86C480.371 1365.86 476.59399999999994 1364.01 476.13199999999995 1360.6299999999999C476.0079999999999 1359.7199999999998 476.13599999999997 1358.83 476.46199999999993 1358.01C475.01899999999995 1354.93 474.44999999999993 1351.92 474.67599999999993 1349.28C473.6569999999999 1349.71 472.4479999999999 1350.04 471.61099999999993 1350.04C470.36299999999994 1350.04 469.74299999999994 1349.3899999999999 469.4839999999999 1349C469.05799999999994 1348.35 468.9989999999999 1347.54 469.32199999999995 1346.78C470.13399999999996 1344.87 472.91499999999996 1344.04 474.07199999999995 1343.77L474.16799999999995 1343.75C472.76899999999995 1340.85 473.44499999999994 1336.15 473.97099999999995 1334.56L477.02799999999996 1334.81C477.08399999999995 1335.81 477.794 1337.69 480.46399999999994 1339.82L482.0489999999999 1340.9099999999999C482.7999999999999 1340.7699999999998 483.5859999999999 1340.6799999999998 484.4459999999999 1340.6799999999998C485.2639999999999 1340.6799999999998 486.0159999999999 1340.7599999999998 486.7349999999999 1340.8899999999999L488.4269999999999 1339.7299999999998C491.0969999999999 1337.5999999999997 491.8069999999999 1335.7199999999998 491.8619999999999 1334.7199999999998L494.9199999999999 1334.4599999999998C495.4479999999999 1336.0599999999997 496.1269999999999 1340.8099999999997 494.6959999999999 1343.6999999999998L494.9899999999999 1343.7699999999998C496.1469999999999 1344.0399999999997 498.9269999999999 1344.8699999999997 499.7399999999999 1346.7799999999997C500.0629999999999 1347.5399999999997 500.0049999999999 1348.3499999999997 499.5779999999999 1348.9999999999998ZM477.806 1345.79C476.054 1348.54 476.228 1352.79 478.27299999999997 1357.1599999999999L478.64 1357.9399999999998L478.322 1358.7399999999998C478.111 1359.2799999999997 478.041 1359.8199999999997 478.114 1360.3599999999997C478.443 1362.7699999999998 481.71299999999997 1363.8599999999997 484.61199999999997 1363.8599999999997C487.51899999999995 1363.8599999999997 490.808 1362.7599999999998 491.157 1360.3399999999997C491.248 1359.6999999999996 491.138 1359.0599999999997 490.827 1358.4399999999996L490.411 1357.5999999999997L490.789 1356.7399999999998C492.667 1352.4899999999998 492.759 1348.37 491.033 1345.7199999999998C489.736 1343.7299999999998 487.458 1342.6799999999998 484.446 1342.6799999999998C481.396 1342.6799999999998 479.1 1343.7499999999998 477.80600000000004 1345.7899999999997ZM479.329 1341.47C479.329 1341.47 475.734 1338.99 475.594 1336.45C475.19 1338.63 475.01 1342.07 476.299 1343.44C476.943 1343.1100000000001 477.959 1342.03 479.32899999999995 1341.47ZM492.592 1343.34C493.881 1341.97 493.7 1338.53 493.29699999999997 1336.36C493.15599999999995 1338.8999999999999 489.561 1341.37 489.561 1341.37C490.93199999999996 1341.9399999999998 491.947 1343.02 492.592 1343.34ZM497.899 1347.57C497.396 1346.3799999999999 494.538 1345.72 494.538 1345.72C494.42 1346.28 494.39 1346.4 494.064 1346.8700000000001C494.745 1347.43 498.40200000000004 1348.7500000000002 497.899 1347.5700000000002ZM474.509 1345.72C474.509 1345.72 471.65000000000003 1346.38 471.147 1347.57C470.645 1348.75 474.30199999999996 1347.4299999999998 474.98199999999997 1346.87C474.657 1346.3999999999999 474.62699999999995 1346.28 474.50899999999996 1345.7199999999998ZM484.183 1371.2C472.217 1371.2 462.48199999999997 1361.47 462.48199999999997 1349.5C462.48199999999997 1337.53 472.217 1327.8 484.183 1327.8C496.149 1327.8 505.885 1337.53 505.885 1349.5C505.885 1361.47 496.149 1371.2 484.183 1371.2Z " fill="#323232" transform="matrix(1,0,0,1,-460,-1325)"></path></svg>