<svg id="SvgjsSvg1026" xmlns="http://www.w3.org/2000/svg" version="1.1" xmlns:xlink="http://www.w3.org/1999/xlink" xmlns:svgjs="http://svgjs.com/svgjs" width="49" height="49"><defs id="SvgjsDefs1027"></defs><path id="SvgjsPath1028" d="M40.7985 1482.5C40.7985 1495.59 51.4098 1506.2 64.49969999999999 1506.2C77.58899999999998 1506.2 88.20129999999999 1495.5900000000001 88.20129999999999 1482.5C88.20129999999999 1469.41 77.58899999999998 1458.8 64.49969999999999 1458.8C51.40979999999999 1458.8 40.79849999999999 1469.4099999999999 40.79849999999999 1482.5ZM64.4373 1498.62C64.4373 1498.62 42.197199999999995 1488.4399999999998 64.4373 1465.87C86.6775 1488.4399999999998 64.4373 1498.62 64.4373 1498.62ZM71.9529 1481.44L65.4164 1485.6000000000001L65.3958 1489.2800000000002L72.28989999999999 1484.8700000000001C72.33569999999999 1483.7600000000002 72.21179999999998 1482.6100000000001 71.95289999999999 1481.44ZM63.3958 1495.7L63.3958 1491.49L56.9789 1487.36C58.0848 1491.5 61.295300000000005 1494.29 63.3958 1495.6999999999998ZM71.8592 1487.5L65.4164 1491.6L65.3958 1495.76C67.46669999999999 1494.4 70.7011 1491.65 71.85919999999999 1487.5ZM56.5628 1484.63L63.3958 1489.1100000000001L63.3958 1485.4900000000002L56.943200000000004 1481.3400000000001C56.688300000000005 1482.46 56.54090000000001 1483.5600000000002 56.5628 1484.63ZM63.3958 1483.11L63.3958 1479.4799999999998L58.9955 1476.0999999999997C58.3832 1477.1999999999996 57.913 1478.2799999999997 57.5316 1479.3399999999997ZM65.4164 1479.6L65.3958 1483.28L71.37689999999999 1479.43C71.02709999999999 1478.45 70.58959999999999 1477.44 70.03989999999999 1476.42ZM65.3958 1477.3L69.02529999999999 1474.7C68.03799999999998 1473.13 66.82789999999999 1471.53 65.39579999999998 1469.88ZM63.3958 1477.02L63.3958 1469.98C62.091100000000004 1471.48 60.9701 1472.96 60.0399 1474.4ZM64.4997 1504.2C52.5334 1504.2 42.798500000000004 1494.47 42.798500000000004 1482.5C42.798500000000004 1470.53 52.5334 1460.8 64.4997 1460.8C76.46600000000001 1460.8 86.2013 1470.53 86.2013 1482.5C86.2013 1494.47 76.46600000000001 1504.2 64.4997 1504.2Z " fill="#323232" transform="matrix(1,0,0,1,-40,-1458)"></path></svg>