<svg id="SvgjsSvg1020" xmlns="http://www.w3.org/2000/svg" version="1.1" xmlns:xlink="http://www.w3.org/1999/xlink" xmlns:svgjs="http://svgjs.com/svgjs" width="49" height="49"><defs id="SvgjsDefs1021"></defs><path id="SvgjsPath1022" d="M64.4997 1325.8C77.589 1325.8 88.2013 1336.4099999999999 88.2013 1349.5C88.2013 1362.59 77.589 1373.2 64.4997 1373.2C51.409800000000004 1373.2 40.798500000000004 1362.5900000000001 40.798500000000004 1349.5C40.798500000000004 1336.41 51.409800000000004 1325.8 64.4997 1325.8ZM70.4541 1335.45C68.8343 1333.8300000000002 66.6809 1332.94 64.39059999999999 1332.94C62.099799999999995 1332.94 59.94649999999999 1333.8300000000002 58.32669999999999 1335.45C56.70679999999999 1337.07 55.81509999999999 1339.22 55.81509999999999 1341.51L55.81509999999999 1356.19C55.81509999999999 1356.64 56.17729999999999 1357 56.624099999999984 1357L72.15689999999998 1357C72.60349999999998 1357 72.96579999999997 1356.64 72.96579999999997 1356.19L72.96579999999997 1341.51C72.96579999999997 1339.22 72.07389999999997 1337.07 70.45409999999997 1335.45ZM71.3479 1355.38L57.4332 1355.38L57.4332 1344.49C57.4778 1344.54 57.5249 1344.59 57.5759 1344.65C58.005199999999995 1345.1200000000001 58.5935 1345.7800000000002 59.7303 1345.7800000000002C60.8673 1345.7800000000002 61.4555 1345.1200000000001 61.8852 1344.65C62.2544 1344.23 62.4357 1344.0500000000002 62.830799999999996 1344.0500000000002C62.854099999999995 1344.0600000000002 62.967099999999995 1344.14 63.1397 1344.4800000000002C63.3122 1344.8100000000002 63.4726 1345.2700000000002 63.6276 1345.7000000000003C63.8314 1346.2800000000002 64.0421 1346.8700000000003 64.3248 1347.3500000000004C64.749 1348.0700000000004 65.29339999999999 1348.4300000000003 65.9434 1348.4300000000003C66.59349999999999 1348.4300000000003 67.1379 1348.0700000000004 67.56219999999999 1347.3500000000004C67.84479999999999 1346.8700000000003 68.0555 1346.2800000000004 68.25939999999999 1345.7000000000003C68.41439999999999 1345.2700000000002 68.57459999999999 1344.8100000000002 68.74759999999999 1344.4800000000002C68.9198 1344.1400000000003 69.03309999999999 1344.0600000000002 69.05619999999999 1344.0500000000002C69.45129999999999 1344.0500000000002 69.6325 1344.2300000000002 70.00219999999999 1344.65C70.31569999999999 1344.99 70.71369999999999 1345.44 71.34789999999998 1345.65ZM62.3415 1363.96C62.3415 1365.0900000000001 63.258900000000004 1366.01 64.3906 1366.01C65.52220000000001 1366.01 66.4397 1365.09 66.4397 1363.96L66.4397 1357.8L62.3415 1357.8ZM86.2013 1349.5C86.2013 1337.53 76.46600000000001 1327.8 64.4997 1327.8C52.5334 1327.8 42.798500000000004 1337.53 42.798500000000004 1349.5C42.798500000000004 1361.47 52.5334 1371.2 64.4997 1371.2C76.46600000000001 1371.2 86.2013 1361.47 86.2013 1349.5Z " fill="#323232" transform="matrix(1,0,0,1,-40,-1325)"></path></svg>