<svg id="SvgjsSvg1029" xmlns="http://www.w3.org/2000/svg" version="1.1" xmlns:xlink="http://www.w3.org/1999/xlink" xmlns:svgjs="http://svgjs.com/svgjs" width="48" height="49"><defs id="SvgjsDefs1030"></defs><path id="SvgjsPath1031" d="M460.482 1482.5C460.482 1495.59 471.093 1506.2 484.18300000000005 1506.2C497.27200000000005 1506.2 507.88500000000005 1495.5900000000001 507.88500000000005 1482.5C507.88500000000005 1469.41 497.27200000000005 1458.8 484.18300000000005 1458.8C471.0930000000001 1458.8 460.482 1469.4099999999999 460.482 1482.5ZM484.023 1497.33C480.273 1497.33 477.20000000000005 1494.29 477.20000000000005 1490.56C477.20000000000005 1488.94 478.02200000000005 1487.28 479.02200000000005 1485.96L479.02200000000005 1471.1200000000001C479.02200000000005 1468.39 481.2660000000001 1466.17 484.02200000000005 1466.17C486.77900000000005 1466.17 489.02200000000005 1468.39 489.02200000000005 1471.1200000000001L489.02200000000005 1486.0300000000002C490.02200000000005 1487.3100000000002 490.80000000000007 1488.9200000000003 490.80000000000007 1490.5600000000002C490.80000000000007 1494.2900000000002 487.77200000000005 1497.3300000000002 484.0230000000001 1497.3300000000002ZM488.822 1490.56C488.822 1489.08 488.068 1487.73 487.068 1486.84L487.068 1471.12C487.068 1469.4899999999998 485.69399999999996 1468.1699999999998 484.068 1468.1699999999998C482.442 1468.1699999999998 481.068 1469.4899999999998 481.068 1471.12L481.068 1486.78C480.068 1487.66 479.22299999999996 1489.05 479.22299999999996 1490.56C479.22299999999996 1493.19 481.39199999999994 1495.33 484.02299999999997 1495.33C486.65599999999995 1495.33 488.82199999999995 1493.1899999999998 488.82199999999995 1490.56ZM486.729 1490.42C486.729 1491.95 485.48699999999997 1493.19 483.955 1493.19C482.423 1493.19 481.181 1491.95 481.181 1490.42C481.181 1489.2 481.967 1488.18 483.054 1487.8100000000002L483.054 1470.9700000000003C483.054 1470.4500000000003 483.479 1470.0300000000002 484.003 1470.0300000000002C484.527 1470.0300000000002 484.952 1470.4500000000003 484.952 1470.9700000000003L484.952 1487.8400000000001C485.99 1488.2400000000002 486.729 1489.2400000000002 486.729 1490.42ZM492 1474L496 1474C496.552 1474 497 1474.45 497 1475C497 1475.55 496.552 1476 496 1476L492 1476C491.448 1476 491 1475.55 491 1475C491 1474.45 491.448 1474 492 1474ZM492 1470L496 1470C496.552 1470 497 1470.45 497 1471C497 1471.55 496.552 1472 496 1472L492 1472C491.448 1472 491 1471.55 491 1471C491 1470.45 491.448 1470 492 1470ZM492 1478L496 1478C496.552 1478 497 1478.45 497 1479C497 1479.55 496.552 1480 496 1480L492 1480C491.448 1480 491 1479.55 491 1479C491 1478.45 491.448 1478 492 1478ZM492 1482L496 1482C496.552 1482 497 1482.45 497 1483C497 1483.55 496.552 1484 496 1484L492 1484C491.448 1484 491 1483.55 491 1483C491 1482.45 491.448 1482 492 1482ZM484.183 1504.2C472.217 1504.2 462.48199999999997 1494.47 462.48199999999997 1482.5C462.48199999999997 1470.53 472.217 1460.8 484.183 1460.8C496.149 1460.8 505.885 1470.53 505.885 1482.5C505.885 1494.47 496.149 1504.2 484.183 1504.2Z " fill="#323232" transform="matrix(1,0,0,1,-460,-1458)"></path></svg>