<svg xmlns="http://www.w3.org/2000/svg" width="48" height="49"><path d="M.482 24.5c0 13.09 10.611 23.7 23.701 23.7 13.089 0 23.702-10.61 23.702-23.7S37.272.8 24.183.8C11.093.8.482 11.41.482 24.5zm39.096-.5c-.259.39-.879 1.04-2.127 1.04-.89 0-2.201-.38-3.256-.84.229 2.52-.273 5.4-1.576 8.35.472.95.672 2 .517 3.08-.488 3.38-4.283 5.23-8.524 5.23-4.241 0-8.018-1.85-8.48-5.23-.124-.91.004-1.8.33-2.62-1.443-3.08-2.012-6.09-1.786-8.73-1.019.43-2.228.76-3.065.76-1.248 0-1.868-.65-2.127-1.04-.426-.65-.485-1.46-.162-2.22.812-1.91 3.593-2.74 4.75-3.01l.096-.02c-1.399-2.9-.723-7.6-.197-9.19l3.057.25c.056 1 .766 2.88 3.436 5.01l1.585 1.09c.751-.14 1.537-.23 2.397-.23.818 0 1.57.08 2.289.21l1.692-1.16c2.67-2.13 3.38-4.01 3.435-5.01l3.058-.26c.528 1.6 1.207 6.35-.224 9.24l.294.07c1.157.27 3.937 1.1 4.75 3.01.323.76.265 1.57-.162 2.22zm-21.772-3.21c-1.752 2.75-1.578 7 .467 11.37l.367.78-.318.8a3.209 3.209 0 0 0-.208 1.62c.329 2.41 3.599 3.5 6.498 3.5 2.907 0 6.196-1.1 6.545-3.52a3.177 3.177 0 0 0-.33-1.9l-.416-.84.378-.86c1.878-4.25 1.97-8.37.244-11.02-1.297-1.99-3.575-3.04-6.587-3.04-3.05 0-5.346 1.07-6.64 3.11zm1.523-4.32s-3.595-2.48-3.735-5.02c-.404 2.18-.584 5.62.705 6.99.644-.33 1.66-1.41 3.03-1.97zm13.263 1.87c1.289-1.37 1.108-4.81.705-6.98-.141 2.54-3.736 5.01-3.736 5.01 1.371.57 2.386 1.65 3.031 1.97zm5.307 4.23c-.503-1.19-3.361-1.85-3.361-1.85-.118.56-.148.68-.474 1.15.681.56 4.338 1.88 3.835.7zm-23.39-1.85s-2.859.66-3.362 1.85c-.502 1.18 3.155-.14 3.835-.7-.325-.47-.355-.59-.473-1.15zm9.674 25.48c-11.966 0-21.701-9.73-21.701-21.7 0-11.97 9.735-21.7 21.701-21.7 11.966 0 21.702 9.73 21.702 21.7 0 11.97-9.736 21.7-21.702 21.7z" fill="#323232"/></svg>