<svg xmlns="http://www.w3.org/2000/svg" width="49" height="49"><path d="M.798 24.5c0 13.09 10.612 23.7 23.702 23.7 13.089 0 23.7-10.61 23.7-23.7S37.59.8 24.5.8.798 11.41.798 24.5zm23.64 16.12s-22.24-10.18 0-32.75c22.24 22.57 0 32.75 0 32.75zm7.515-17.18l-6.537 4.16-.02 3.68 6.894-4.41c.046-1.11-.078-2.26-.337-3.43zM23.396 37.7v-4.21l-6.417-4.13c1.106 4.14 4.316 6.93 6.417 8.34zm8.463-8.2l-6.443 4.1-.02 4.16c2.07-1.36 5.305-4.11 6.463-8.26zm-15.296-2.87l6.833 4.48v-3.62l-6.453-4.15c-.255 1.12-.402 2.22-.38 3.29zm6.833-1.52v-3.63l-4.4-3.38a21.745 21.745 0 0 0-1.464 3.24zm2.02-3.51l-.02 3.68 5.98-3.85a21.74 21.74 0 0 0-1.336-3.01zm-.02-2.3l3.63-2.6c-.988-1.57-2.198-3.17-3.63-4.82zm-2-.28v-7.04a39.181 39.181 0 0 0-3.356 4.42zM24.5 46.2c-11.967 0-21.701-9.73-21.701-21.7 0-11.97 9.734-21.7 21.7-21.7 11.967 0 21.702 9.73 21.702 21.7 0 11.97-9.735 21.7-21.701 21.7z" fill="#323232"/></svg>