<svg xmlns="http://www.w3.org/2000/svg" width="49" height="49"><path d="M24.5.8c13.089 0 23.7 10.61 23.7 23.7S37.59 48.2 24.5 48.2.799 37.59.799 24.5 11.409.8 24.499.8zm5.954 9.65a8.516 8.516 0 0 0-6.063-2.51c-2.291 0-4.445.89-6.064 2.51a8.511 8.511 0 0 0-2.512 6.06v14.68c0 .45.362.81.81.81h15.532c.446 0 .809-.36.809-.81V16.51c0-2.29-.892-4.44-2.512-6.06zm.894 19.93H17.433V19.49c.045.05.092.1.143.16.43.47 1.017 1.13 2.154 1.13s1.726-.66 2.155-1.13c.37-.42.55-.6.946-.6.023.01.136.09.309.43.172.33.333.79.488 1.22.203.58.414 1.17.697 1.65.424.72.968 1.08 1.618 1.08.65 0 1.195-.36 1.62-1.08.282-.48.492-1.07.696-1.65.155-.43.316-.89.489-1.22.172-.34.285-.42.308-.43.395 0 .576.18.946.6.314.34.712.79 1.346 1zm-9.006 8.58c0 1.13.917 2.05 2.049 2.05 1.131 0 2.049-.92 2.049-2.05V32.8h-4.098zm23.86-14.46c0-11.97-9.736-21.7-21.702-21.7-11.967 0-21.701 9.73-21.701 21.7 0 11.97 9.734 21.7 21.7 21.7 11.967 0 21.702-9.73 21.702-21.7z" fill="#323232"/></svg>