<svg xmlns="http://www.w3.org/2000/svg" width="48" height="49"><path d="M.482 24.5c0 13.09 10.611 23.7 23.701 23.7 13.089 0 23.702-10.61 23.702-23.7S37.272.8 24.183.8C11.093.8.482 11.41.482 24.5zm23.541 14.83c-3.75 0-6.823-3.04-6.823-6.77 0-1.62.822-3.28 1.822-4.6V13.12c0-2.73 2.244-4.95 5-4.95 2.757 0 5 2.22 5 4.95v14.91c1 1.28 1.778 2.89 1.778 4.53 0 3.73-3.028 6.77-6.777 6.77zm4.799-6.77c0-1.48-.754-2.83-1.754-3.72V13.12c0-1.63-1.374-2.95-3-2.95s-3 1.32-3 2.95v15.66c-1 .88-1.845 2.27-1.845 3.78 0 2.63 2.169 4.77 4.8 4.77 2.633 0 4.799-2.14 4.799-4.77zm-2.093-.14c0 1.53-1.242 2.77-2.774 2.77a2.772 2.772 0 0 1-2.774-2.77c0-1.22.786-2.24 1.873-2.61V12.97c0-.52.425-.94.949-.94s.949.42.949.94v16.87c1.038.4 1.777 1.4 1.777 2.58zM32 16h4c.552 0 1 .45 1 1s-.448 1-1 1h-4c-.552 0-1-.45-1-1s.448-1 1-1zm0-4h4c.552 0 1 .45 1 1s-.448 1-1 1h-4c-.552 0-1-.45-1-1s.448-1 1-1zm0 8h4c.552 0 1 .45 1 1s-.448 1-1 1h-4c-.552 0-1-.45-1-1s.448-1 1-1zm0 4h4c.552 0 1 .45 1 1s-.448 1-1 1h-4c-.552 0-1-.45-1-1s.448-1 1-1zm-7.817 22.2c-11.966 0-21.701-9.73-21.701-21.7 0-11.97 9.735-21.7 21.701-21.7 11.966 0 21.702 9.73 21.702 21.7 0 11.97-9.736 21.7-21.702 21.7z" fill="#323232"/></svg>