<svg xmlns="http://www.w3.org/2000/svg" xmlns:xlink="http://www.w3.org/1999/xlink" width="953" height="64" viewBox="0 0 953 64">
  <svg width="9" height="7" id="arrow-down" x="0">
    <path d="M.556.987h7.802L4.515 6.012h-.123z" fill="#fff"></path>
  </svg>
<svg width="21" height="20" id="basket" x="9">
  <path d="M20.576 4.46l-1.204 8.912c-.184.922-1.024 1.635-1.882 1.635H6.61c-.859 0-1.696-.713-1.879-1.635L3.262 3.085c-.146-.732-.157-.976-.137-1.054H1a1 1 0 1 1 0-2h4a1 1 0 0 1 1 1 .99.99 0 0 1-.898.979h13.965c1.105 0 1.773 1.131 1.509 2.45zm-3.173 8.518c-.005 0-.004-.003.004-.014l1.186-8.787s.028-.2.031-.2H5.418l1.313 9zM7.246 15.987a1.874 1.874 0 1 1 0 3.748 1.874 1.874 0 0 1 0-3.748zm9 0a1.874 1.874 0 1 1 0 3.748 1.874 1.874 0 0 1 0-3.748z" fill="#fff"></path>
  </svg>
<svg width="21" height="20" id="basket-active" x="30">
  <path d="M20.58 4.46l-1.21 8.912c-.18.922-1.02 1.635-1.88 1.635H6.61c-.86 0-1.7-.713-1.88-1.635L3.26 3.085c-.14-.732-.15-.976-.13-1.055H1a1.001 1.001 0 0 1 0-2h4c.55 0 1 .448 1 1 0 .517-.4.926-.9.98h13.97c1.1 0 1.77 1.131 1.51 2.45zm-3.18 8.518s0-.003.01-.014l1.18-8.788.03-.198H5.42l1.31 9zM7.25 15.986a1.875 1.875 0 1 1-.01 3.75 1.875 1.875 0 0 1 .01-3.75zm9 0a1.875 1.875 0 1 1-.01 3.75 1.875 1.875 0 0 1 .01-3.75z" fill="#343434"></path>
  </svg>
<svg width="38" height="38" id="border" x="51">
  <path d="M18.925.24c10.284 0 18.62 8.33 18.62 18.62 0 10.28-8.336 18.62-18.62 18.62C8.642 37.48.306 29.14.306 18.86.306 8.57 8.642.24 18.925.24zM3.173 18.92c0 8.67 7.025 15.69 15.692 15.69 8.666 0 15.691-7.02 15.691-15.69S27.531 3.23 18.865 3.23c-8.667 0-15.692 7.02-15.692 15.69z" fill="#fff"></path>
  </svg>
<svg width="22" height="20" id="checkbox" x="89">
  <path d="M5.146.01h11.708c2.297 0 4.16 1.87 4.16 4.16v11.65c0 2.3-1.863 4.17-4.16 4.17H5.146a4.167 4.167 0 0 1-4.161-4.17V4.17C.985 1.88 2.848.01 5.146.01zM2 4v12c0 1.66 1.343 3 3 3h12c1.657 0 3-1.34 3-3V4c0-1.66-1.343-3-3-3H5C3.343 1 2 2.34 2 4z" fill="#fff"></path>
  </svg>
<svg width="22" height="20" id="checkbox-active" x="111">
  <path d="M5.146.01h11.708c2.297 0 4.16 1.87 4.16 4.16v11.65c0 2.3-1.863 4.17-4.16 4.17H5.146a4.167 4.167 0 0 1-4.161-4.17V4.17C.985 1.88 2.848.01 5.146.01zM2 4v12c0 1.66 1.343 3 3 3h12c1.657 0 3-1.34 3-3V4c0-1.66-1.343-3-3-3H5C3.343 1 2 2.34 2 4zm15.369 2.96l-5.93 5.93h.001l-1.765 1.76h-.003l-1.765-1.76h.001l-3.07-3.07 1.766-1.77 3.07 3.07 5.93-5.93z" fill="#fff"></path>
  </svg>
<svg width="18" height="17" id="close" x="133">
  <path d="M.451 1.21L1.633.028l7.29 7.29L16.227.012l1.182 1.182-7.304 7.304 7.289 7.29-1.182 1.182-7.29-7.29-7.274 7.275-1.182-1.182L7.74 8.499z"></path>
  </svg>
<svg width="48" height="49" id="cow" x="151">
  <path d="M.482 24.5c0 13.09 10.611 23.7 23.701 23.7 13.089 0 23.702-10.61 23.702-23.7S37.272.8 24.183.8C11.093.8.482 11.41.482 24.5zm39.096-.5c-.259.39-.879 1.04-2.127 1.04-.89 0-2.201-.38-3.256-.84.229 2.52-.273 5.4-1.576 8.35.472.95.672 2 .517 3.08-.488 3.38-4.283 5.23-8.524 5.23-4.241 0-8.018-1.85-8.48-5.23-.124-.91.004-1.8.33-2.62-1.443-3.08-2.012-6.09-1.786-8.73-1.019.43-2.228.76-3.065.76-1.248 0-1.868-.65-2.127-1.04-.426-.65-.485-1.46-.162-2.22.812-1.91 3.593-2.74 4.75-3.01l.096-.02c-1.399-2.9-.723-7.6-.197-9.19l3.057.25c.056 1 .766 2.88 3.436 5.01l1.585 1.09c.751-.14 1.537-.23 2.397-.23.818 0 1.57.08 2.289.21l1.692-1.16c2.67-2.13 3.38-4.01 3.435-5.01l3.058-.26c.528 1.6 1.207 6.35-.224 9.24l.294.07c1.157.27 3.937 1.1 4.75 3.01.323.76.265 1.57-.162 2.22zm-21.772-3.21c-1.752 2.75-1.578 7 .467 11.37l.367.78-.318.8a3.209 3.209 0 0 0-.208 1.62c.329 2.41 3.599 3.5 6.498 3.5 2.907 0 6.196-1.1 6.545-3.52a3.177 3.177 0 0 0-.33-1.9l-.416-.84.378-.86c1.878-4.25 1.97-8.37.244-11.02-1.297-1.99-3.575-3.04-6.587-3.04-3.05 0-5.346 1.07-6.64 3.11zm1.523-4.32s-3.595-2.48-3.735-5.02c-.404 2.18-.584 5.62.705 6.99.644-.33 1.66-1.41 3.03-1.97zm13.263 1.87c1.289-1.37 1.108-4.81.705-6.98-.141 2.54-3.736 5.01-3.736 5.01 1.371.57 2.386 1.65 3.031 1.97zm5.307 4.23c-.503-1.19-3.361-1.85-3.361-1.85-.118.56-.148.68-.474 1.15.681.56 4.338 1.88 3.835.7zm-23.39-1.85s-2.859.66-3.362 1.85c-.502 1.18 3.155-.14 3.835-.7-.325-.47-.355-.59-.473-1.15zm9.674 25.48c-11.966 0-21.701-9.73-21.701-21.7 0-11.97 9.735-21.7 21.701-21.7 11.966 0 21.702 9.73 21.702 21.7 0 11.97-9.736 21.7-21.702 21.7z" fill="#323232"></path>
  </svg>
<svg width="49" height="49" id="eco" x="199">
  <path d="M.798 24.5c0 13.09 10.612 23.7 23.702 23.7C37.589 48.2 48.2 37.59 48.2 24.5S37.59.8 24.5.8C11.41.8.798 11.41.798 24.5zm23.64 16.12s-22.24-10.18 0-32.75c22.24 22.57 0 32.75 0 32.75zm7.515-17.18l-6.537 4.16-.02 3.68 6.894-4.41c.046-1.11-.078-2.26-.337-3.43zM23.396 37.7v-4.21l-6.417-4.13c1.106 4.14 4.316 6.93 6.417 8.34zm8.463-8.2l-6.443 4.1-.02 4.16c2.07-1.36 5.305-4.11 6.463-8.26zm-15.296-2.87l6.833 4.48v-3.62l-6.453-4.15c-.255 1.12-.402 2.22-.38 3.29zm6.833-1.52v-3.63l-4.4-3.38a21.745 21.745 0 0 0-1.464 3.24zm2.02-3.51l-.02 3.68 5.98-3.85a21.74 21.74 0 0 0-1.336-3.01zm-.02-2.3l3.63-2.6c-.988-1.57-2.198-3.17-3.63-4.82zm-2-.28v-7.04a39.181 39.181 0 0 0-3.356 4.42zM24.5 46.2c-11.967 0-21.701-9.73-21.701-21.7 0-11.97 9.734-21.7 21.7-21.7 11.967 0 21.702 9.73 21.702 21.7 0 11.97-9.735 21.7-21.701 21.7z" fill="#323232"></path>
  </svg>
<svg width="32" height="32" id="facebook" x="248">
  <path d="M15.865.23c8.666 0 15.691 7.02 15.691 15.69s-7.025 15.69-15.691 15.69C7.198 31.61.173 24.59.173 15.92S7.198.23 15.865.23zm.773 24.99v-9.29h2.743l.285-3.09h-3.028l.005-1.86c0-.89.085-1.26 1.367-1.26h1.764V6.3h-2.792c-3.294 0-4.082 1.54-4.082 4.34v2.2h-1.889v3.09H12.9v9.29z" fill="#fff"></path>
  </svg>
<svg width="15" height="13" id="favorite" x="280">
  <path d="M7.606 12.73l.019-.01.019.01s0-.007.003-.02c.583-.297 7.244-3.782 7.244-8.2 0-5.102-5.435-5.931-7.266-1.78C5.794-1.42.359-.591.359 4.51c0 4.418 6.66 7.903 7.244 8.2l.003.02z" fill="#f7f8f8"></path>
  </svg>
<svg width="108" height="38" id="htmlAcademy" x="295">
  <path d="M105.868 20.3h1.935l-3.888 9.42c-.899 2.16-2.074 2.89-3.336 2.89-.362 0-.725-.06-1.089-.14v-1.58c.277.09.571.13.847.13.899 0 1.573-.64 2.057-1.94l.173-.41-3.941-8.37h1.971l2.799 6.26zm-50.596-6.23V5.78h1.642v1.03c.449-.5 1.417-1.26 2.765-1.26 1.245 0 2.109.52 2.593 1.33.725-.72 1.693-1.33 2.903-1.33 2.195 0 3.146 1.63 3.146 3.34v5.18h-1.85V8.94c0-1.07-.639-1.75-1.642-1.75-.915 0-1.624.61-2.056 1.13.017.19.035.38.035.57v5.18h-1.85V8.94c0-1.07-.639-1.75-1.642-1.75-1.002 0-1.763.73-2.195 1.28v5.6zm29.39 14.53v-8.3h1.642v1.04c.449-.5 1.417-1.26 2.765-1.26 1.244 0 2.108.51 2.592 1.33.726-.73 1.694-1.33 2.904-1.33 2.194 0 3.145 1.62 3.145 3.33v5.19h-1.849v-5.14c0-1.07-.64-1.74-1.642-1.74-.916 0-1.625.6-2.056 1.12.017.19.034.38.034.57v5.19h-1.849v-5.14c0-1.07-.64-1.74-1.642-1.74-1.002 0-1.763.72-2.195 1.28v5.6zM72.875 16.5v12.1h-1.659v-1.32c-.64.81-1.625 1.54-3.18 1.54-2.506 0-4.113-1.99-4.113-4.37 0-2.39 1.607-4.37 4.113-4.37 1.452 0 2.419.64 2.99 1.29V16.5zM38.734 1.97v4.72a3.782 3.782 0 0 1 2.678-1.14c2.092 0 3.422 1.42 3.422 3.39v5.13h-1.849V9.18c0-1.35-.83-1.99-1.935-1.99-1.055 0-1.85.71-2.316 1.39v5.49h-1.85V1.97zm23.875 25.31c.19 0 .38-.05.553-.1v1.33c-.345.14-.76.21-1.175.21-.76 0-1.365-.3-1.659-.97-.812.66-1.832 1.07-3.128 1.07-1.504 0-2.904-.83-2.904-2.54 0-2.13 1.971-2.78 3.699-2.78.708 0 1.503.1 2.16.24v-.29c0-1.04-.76-1.77-2.178-1.77-1.227 0-2.246.31-2.989.64v-1.69c.657-.23 1.849-.55 3.18-.55 2.35 0 3.836 1.12 3.836 3.63v2.97c0 .46.277.6.605.6.328 0 0 0 0 0zm-18.008 0c.19 0 .38-.05.553-.1v1.33c-.346.14-.761.21-1.175.21-.761 0-1.366-.3-1.66-.97-.812.66-1.831 1.07-3.128 1.07-1.503 0-2.903-.83-2.903-2.54 0-2.13 1.97-2.78 3.698-2.78.709 0 1.504.1 2.161.24v-.29c0-1.04-.761-1.77-2.178-1.77a7.36 7.36 0 0 0-2.99.64v-1.69c.657-.23 1.85-.55 3.18-.55 2.351 0 3.837 1.12 3.837 3.63v2.97c0 .46.277.6.605.6.328 0 0 0 0 0zm5.297-24.46v2.96h3.008V7.4h-3.008v3.8c0 1.09.501 1.45 1.573 1.45.605 0 1.158-.12 1.676-.32v1.59c-.622.22-1.417.36-2.229.36-1.608 0-2.852-.8-2.852-2.73V7.4H46.58V5.78h1.486V3.27zm28.974 17.26c3.301 0 4.442 2.66 3.906 5.06h-6.239c.208 1.49 1.659 2.11 3.18 2.11 1.002 0 1.918-.24 2.627-.59v1.59c-.76.36-1.815.57-2.973.57-2.54 0-4.701-1.45-4.701-4.37 0-3.01 2.282-4.37 4.2-4.37 1.918 0 0 0 0 0zm-28.378 0c.933 0 1.832.2 2.558.64v1.69c-.605-.43-1.452-.69-2.299-.69-1.468 0-2.955.78-2.955 2.73 0 1.88 1.434 2.73 2.921 2.73.881 0 1.763-.26 2.419-.64v1.71c-.795.38-1.693.57-2.748.57-2.212 0-4.476-1.35-4.476-4.3 0-3.1 2.368-4.44 4.58-4.44zm15.295 4.37c0 1.62 1.089 2.75 2.575 2.75 1.297 0 2.247-.83 2.644-1.75v-2.02c-.397-.9-1.347-1.73-2.644-1.73-1.486 0-2.575 1.12-2.575 2.75zM71 14V2h2v12zM38.189 26.16c0 .81.726 1.23 1.555 1.23.882 0 1.746-.33 2.403-.99V25c-.501-.1-1.21-.21-1.798-.21-1.054 0-2.16.33-2.16 1.37zm18.008 0c0 .81.726 1.23 1.556 1.23.881 0 1.745-.33 2.402-.99V25c-.501-.1-1.21-.21-1.797-.21-1.055 0-2.161.33-2.161 1.37zm20.325-2.4h4.597c.104-.73-.346-2.15-2.16-2.15-1.245 0-2.368.75-2.437 2.15zM29.155 2.05V28.6l-14.484 8.61L.187 28.6V2.05L14.671.53l.152.02zm-1.894 14.41l-3.884 2.31v4.29h.01v1.31l-8.716 5.22-8.633-5.19.012-1.31 8.631 5.13-.021-1.39-8.634-5.18.013-1.32 8.599 5.12-.021-1.35-12.535-7.46v10.88l12.589 7.49 12.59-7.49zM14.6 7.67L2.109 15.18l12.473 7.41 2.133-1.28-2.094-1.23.013-1.31 3.19 1.88.024-.02.997-.66-4.224-2.52.013-1.31 5.351 3.18.92-.54.14-.08.057-.03-6.481-3.86.013-1.31 7.582 4.51 1.59-.94 3.444-2.03z" fill="#fff"></path>
  </svg>
<svg width="49" height="49" id="ice-cream" x="403">
  <path d="M24.5.8C37.589.8 48.2 11.41 48.2 24.5S37.59 48.2 24.5 48.2C11.41 48.2.799 37.59.799 24.5S11.409.8 24.499.8zm5.954 9.65a8.516 8.516 0 0 0-6.063-2.51c-2.291 0-4.445.89-6.064 2.51a8.511 8.511 0 0 0-2.512 6.06v14.68c0 .45.362.81.81.81h15.532c.446 0 .809-.36.809-.81V16.51c0-2.29-.892-4.44-2.512-6.06zm.894 19.93H17.433V19.49c.045.05.092.1.143.16.43.47 1.017 1.13 2.154 1.13s1.726-.66 2.155-1.13c.37-.42.55-.6.946-.6.023.01.136.09.309.43.172.33.333.79.488 1.22.203.58.414 1.17.697 1.65.424.72.968 1.08 1.618 1.08.65 0 1.195-.36 1.62-1.08.282-.48.492-1.07.696-1.65.155-.43.316-.89.489-1.22.172-.34.285-.42.308-.43.395 0 .576.18.946.6.314.34.712.79 1.346 1zm-9.006 8.58c0 1.13.917 2.05 2.049 2.05 1.131 0 2.049-.92 2.049-2.05V32.8h-4.098zm23.86-14.46c0-11.97-9.736-21.7-21.702-21.7-11.967 0-21.701 9.73-21.701 21.7 0 11.97 9.734 21.7 21.7 21.7 11.967 0 21.702-9.73 21.702-21.7z" fill="#323232"></path>
  </svg>
<svg width="32" height="32" id="instagram" x="452">
  <path d="M15.865.23c8.666 0 15.691 7.02 15.691 15.69s-7.025 15.69-15.691 15.69S.173 24.59.173 15.92 7.2.23 15.865.23zm6.271 23.61c.964 0 1.745-.78 1.745-1.75V9.78c0-.96-.781-1.74-1.745-1.74H9.81c-.964 0-1.745.78-1.745 1.74v12.31c0 .97.78 1.75 1.744 1.75zm.005-9.1v6.78c0 .34-.274.61-.612.61H10.464a.609.609 0 0 1-.611-.61v-6.78h1.38a4.927 4.927 0 0 0 4.764 6.16 4.927 4.927 0 0 0 4.764-6.16h1.38zm-6.143-1.61c1.567 0 3.066 1.15 3.066 2.84s-1.499 2.84-3.066 2.84a2.838 2.838 0 0 1-2.839-2.84c0-1.57 1.27-2.84 2.839-2.84zm3.697-3.31h1.865c.338 0 .611.27.611.61v1.86c0 .34-.273.61-.611.61h-1.865a.609.609 0 0 1-.611-.61v-1.86c0-.34.274-.61.611-.61z" fill="#fff"></path>
  </svg>
<svg width="22" height="19" id="login" x="484">
  <path d="M4 3.969v-.96a3 3 0 0 1 3-3h11.059a3 3 0 0 1 3 3v12.977a3 3 0 0 1-3 3H7a3 3 0 0 1-3-3V15h2v2h13V2H6v1.969zM.995 6.9h6.029V4.158l7.027 5.3-7.027 5.3v-2.743H.995z" fill="#fff"></path>
  </svg>
<svg width="22" height="19" id="login-active" x="506">
  <path d="M4 3.968v-.96a3 3 0 0 1 3-3h11.059a3 3 0 0 1 3 3v12.977a3.001 3.001 0 0 1-3 3.001H7a3 3 0 0 1-3-3.001V15h2v2h13V1.999H6v1.969zM.995 6.901h6.029V4.158l7.027 5.3-7.027 5.299v-2.743H.995z" fill="#353535"></path>
  </svg>
<svg width="154" height="64" id="logo" x="528">
  <path d="M60.332 42.056c-.238-.178-.425-.317-.671-.317-.402 0-.559.339-.662.562-.053.114-.125.269-.245.473-.596 1.076-2.532 1.622-5.755 1.622-3.766 0-8.777-.758-13.18-1.5-5.3-.903-11.343-1.862-16.306-2.207.906-3.967 1.569-9.097 2.025-15.684 0-.594-.904-.727-1.22-.727-.4 0-1.708.165-1.786 2.288l-.132 2.548c-.466 2.513-1.867 6.76-6.016 6.963a5.159 5.159 0 0 1-.277.007c-1.628 0-3-.62-4.082-1.842-1.966-2.222-2.794-6.368-2.215-11.088.205-1.638.558-3.21 1.078-4.793 6.623-.153 12.936-3.16 14.472-6.93.592-1.443.52-2.882-.195-3.95-.9-1.34-2.717-1.935-4.95-1.635-4.624.597-9.215 4.48-11.788 9.94-2.911-.824-5.416-3.298-4.78-6.646.917-4.905 7.432-6.508 9.575-6.508.412 0 .582.054.626.07.287.11.617.17.93.17.634 0 1.07-.246 1.162-.659.163-.72-.817-1.186-1.194-1.366-.257-.115-.634-.172-1.152-.172C10.674.675 2.25 2.713.938 9.277c-.395 1.974-.086 3.731.918 5.221 1.133 1.682 3.177 2.957 5.665 3.55-.596 1.66-1.007 3.508-1.224 5.504-.54 4.97.538 9.365 2.956 12.06 1.657 1.846 3.872 2.822 6.408 2.822l.302-.005c2.278-.107 4.261-1.009 5.819-2.626-.225 1.796-.496 3.377-.823 4.789a50.074 50.074 0 0 0-1.064-.012c-5.93 0-9.245 1.228-10.428 3.857-.681 1.459-.582 3.008.28 4.364 1.07 1.68 3.118 2.765 5.22 2.765.323 0 .646-.027.967-.08 3.221-.576 5.467-3.344 7.048-8.7 4.364.208 9.853.984 16.325 2.305.975.202 1.958.412 2.939.621 5.341 1.137 10.386 2.21 14.055 2.21 2.11 0 3.573-.365 4.466-1.112.892-.725 1.052-1.587 1.03-2.182-.039-.973-.619-1.986-1.465-2.572zm18.025-19.293l-.15-.192c-.154-.197-.416-.288-.823-.288-.87 0-2.3.415-2.427 1.511-.122.765-.25 2.066-.342 3.452-.654 5.235-2.203 8.13-3.025 8.13a.924.924 0 0 1-.733-.34c-1.068-1.212-1.183-5.218-.34-11.9l.016-.271-.15-.173c-.151-.174-.397-.255-.775-.255-.882 0-2.33.42-2.46 1.553-.27 2.59-.334 4.886-.19 6.827-.592 1.903-1.921 4.984-4.317 4.984-.617 0-1.207-.272-1.705-.787-1.004-1.038-1.559-2.961-1.485-5.14.162-3.704 1.283-6.605 2.553-6.605.41 0 .574.163.66.286.403.57.227 1.958-.153 3.028l-.085.227c-.176.467-.292.775-.088 1.071.09.128.292.35.904.215.746-.14 2.268-.94 2.4-1.938.042-.56.092-2.48-1.028-3.689-.568-.611-1.317-.92-2.228-.92-3.25 0-5.89 3.796-6.141 8.84-.011.322-.008.635.005.94-.887 3.468-1.615 4.68-1.902 4.939-.238-.398-.552-2.322.433-7.49l.014-.279-.15-.173c-.161-.185-.443-.276-.864-.276-.966 0-2.091.441-2.279 1.416a7.63 7.63 0 0 0-.102.873l-.025.316c-.552 3.1-1.664 4.721-2.477 4.721-.122 0-.283-.102-.44-.28-.668-.755-1.244-2.725-.93-5.268.409-3.416 1.795-5.71 3.449-5.71.506 0 .845.11 1.007.331.23.313.202.94-.076 1.838l-.05.135c-.211.568-.338.91-.116 1.23.092.13.355.348.896.233.751-.14 2.27-1.026 2.4-2.031.054-.927-.237-1.778-.82-2.396-.458-.484-1.325-1.061-2.86-1.061-2.827 0-6.365 2.138-7.02 8.196-1.06 3.52-2.406 5.16-2.982 5.16-.762 0-1.956-2.253-2.253-7.256 1.849-3.023 4.26-8.364 5.368-12.885.824-3.547 1.376-9.307.024-11.01-.367-.462-.795-.559-1.09-.559-3.948 0-7.128 12.154-7.67 20.869a27.24 27.24 0 0 0 .058 4.036c-.884 4.186-2.55 6.853-3.316 6.853-.716 0-1.839-2.136-2.122-6.88 1.76-2.882 4.057-7.966 5.112-12.273.786-3.384 1.31-8.88.018-10.508-.356-.447-.77-.541-1.057-.541-3.774 0-6.811 11.589-7.328 19.898-.348 6.01 1.305 10.023 2.826 11.634.66.7 1.382 1.07 2.085 1.07 1.841 0 3.5-2.5 4.574-5.107.962 3.124 2.596 5.128 4.281 5.128 1.282 0 2.661-1.237 3.876-3.44.728 2.058 2.158 3.127 3.394 3.127.054 0 .108-.003.17-.007 1.179-.104 2.307-1.016 3.258-2.607.384 2.143 1.215 3.415 2.297 3.415 1.318 0 2.428-1.844 3.23-3.771 1.008 2.095 2.836 3.39 4.913 3.39 2.065 0 4.04-1.473 5.54-4.09.923 3.043 2.593 3.538 3.58 3.538.982 0 1.945-.712 2.814-2.05l-.03.278a29.309 29.309 0 0 0-5.63 9.629c-1.05 2.935-1.025 6.062.062 7.606.42.595.972.91 1.596.91 1.85 0 4.65-2.534 7.58-24.438a156.7 156.7 0 0 0 .796-6.653zm72.895 22.564c-1.742-1.855-4.228-2.08-7.003-2.08h-.236c-1.893-2-4.913-4.154-8.977-4.4-3.495-.227-6.363-.225-8.835.831.083-.669.152-1.546.209-2.224.518.208 1.058.21 1.635.21 3.068 0 6.287-2.584 6.567-8.248.133-3.125-.38-5.41-1.485-6.563-.536-.559-1.208-.867-1.943-.867-1.646 0-3.188 1.443-4.394 4.055a109.86 109.86 0 0 0-.011-.77c-.008-.478-.015-.871-.015-1.313 0-1.105-.053-1.731-1.137-1.731-.39 0-.784.175-1.081.48-.293.302-.636.884-.606 1.939.027 1.384.032 2.785.017 4.281-.5 2.245-1.406 4.01-2.34 4.697.501-1.186.874-2.61 1.113-4.254.416-3.022-.042-5.637-1.227-6.996-.568-.652-1.254-.948-1.986-.818-.845.152-1.546.605-2.11 1.259-.202-.405-.723-.559-1.251-.341-2.581 1.022-4.222 4.027-4.39 8.038-.101 2.49.569 4.615 1.886 5.987.883.92 1.972 1.405 3.153 1.405 1.361 0 2.652-.767 3.656-2.164 1.196-.036 2.365-.745 3.352-2.005-.119 2.493-.31 4.94-.566 7.296-2.012 1.485-3.711 3.627-5.192 6.54-1.982 3.934-1.764 7.546-.722 9.24.443.719 1.039 1.114 1.677 1.114 3.089 0 5.571-8.574 6.778-16.015 2.368-1.427 5.19-2.1 8.432-1.97 2.786.102 5.165.87 6.81 2.184-3.228 1.042-5.45 3.689-5.887 7.092-.23 1.737.179 3.352 1.123 4.43.85.97 2.04 1.467 3.51 1.394 1.745-.079 3.25-.773 4.354-2.008 1.363-1.523 2.02-3.786 1.849-6.372a9.2 9.2 0 0 0-.605-2.766c3.908.64 6.258 3.985 6.055 8.758-.277 5.81-5.351 9.407-9.894 9.407-2.997 0-5.196-.734-6.357-2.12-1.053-1.257-1.054-2.751-.873-3.772.029-.144.058-.27.083-.378.089-.383.158-.687-.052-.95a.644.644 0 0 0-.531-.238c-.096 0-.204.014-.386.055-1.232.36-2.479 1.573-2.479 3.194 0 2.937 3.13 6.1 10.002 6.1 7.138 0 12.435-4.33 12.885-11.1.197-3.13-.717-5.544-2.575-7.523zm-39.663-7.586c-.706-.257-1.436-1.93-.902-8.443.288-3.707.407-5.85-.485-6.815-.314-.338-.732-.51-1.243-.51-2.142 0-4.206 2.606-5.643 5.731a62.81 62.81 0 0 1 .461-6.926c2.198-1.029 3.92-2.765 5.118-5.162 1.819-3.575 1.584-7.381.411-9.294-.453-.74-1.043-1.147-1.662-1.147-2.716 0-5.229 5.687-6.433 14.522a8.746 8.746 0 0 1-3.616.078 5.491 5.491 0 0 1-.89-.236c1.645-1.01 2.795-3.107 2.914-5.475.119-1.785-.37-3.341-1.413-4.498-1.163-1.29-2.982-2.016-5.263-2.1-.119-.005-.24-.007-.361-.007-4.451 0-9.152 2.405-9.529 6.991-.385 4.035 3.193 6.385 6.653 8.659l.694.457c3.307 2.218 6.235 4.527 5.763 8.347-.383 3.135-4.333 5.658-8.542 5.332-2.141-.168-3.986-1.078-5.196-2.563-1.162-1.427-1.67-3.255-1.432-5.144.266-1.975 1.129-3.487 3.093-5.41.374-.4.694-.83.507-1.26-.076-.174-.263-.487-.986-.381-.592.084-2.424.682-3.02 1.227-1.698 1.538-2.18 3.661-2.285 5.178-.237 4.214 1.929 9.557 8.814 10.745.692.118 1.396.179 2.091.179 5.606 0 10.063-3.778 10.369-8.787.271-4.696-3.352-7.34-6.772-9.45l-.375-.227c-3.318-2.01-6.453-3.908-5.965-7.635.385-2.85 3.109-4.125 5.637-4.125.179 0 .358.006.539.018 2.803.18 4.368 1.782 4.409 4.512.015 1.247-.377 2.397-1.047 3.075-.316.32-.675.503-.984.503-.446 0-.71-.385-.833-.659a3.925 3.925 0 0 1-.063-2.18l.081-.25c.147-.452.245-.75.039-1.034a.641.641 0 0 0-.54-.253c-.099 0-.214.014-.389.052-.862.215-2.184 1.076-2.288 2.588-.086 2.378 1.342 5.12 5.606 5.689 1.499.209 2.996.194 4.374-.04-.272 2.5-.447 5.15-.521 7.89-.034 1.627-.061 2.582-.081 3.298-.03 1.081-.046 1.618-.046 3.075 0 1.246.184 1.689 1.222 1.689.569 0 1.547-.478 1.596-2.208 1.03-6.823 3.849-10.595 4.576-10.633.133.197.031 1.196-.06 2.078-.098.95-.22 2.13-.25 3.55-.125 5.843 1.006 8.811 3.452 9.075 1.211.15 1.437-.403 1.482-.624.033-.153.075-.68-.786-1.062zM39.112 24.263c.359-6.57 2.573-15.468 3.662-16.826.321.863.396 4.25-.656 8.299-.591 2.397-1.78 5.738-3.006 8.527zm-8.742.488c.36-6.165 2.416-14.455 3.45-15.846.29.88.341 4.074-.64 7.848-.555 2.25-1.661 5.37-2.81 7.998zM142.29 51.94c-.566.6-1.27.916-2.038.916l-.106-.002c-.813-.016-1.452-.297-1.901-.837-.593-.714-.801-1.822-.583-3.126.4-2.603 2.284-4.494 4.95-5.001.598.962.938 2.084 1.012 3.342.118 1.967-.37 3.683-1.334 4.708zM128.003 35.63c-.599 0-1.048-.125-1.394-.39l.064-1.027c1.053-6.795 3.108-9.673 3.748-9.673.034 0 .121 0 .244.132.457.486.869 2.161.657 5.4-.248 3.48-1.49 5.558-3.319 5.558zM16.243 48.89a3.357 3.357 0 0 1-1.092.189c-1.002 0-1.873-.485-2.33-1.297-.488-.866-.403-1.964.23-3.01.542-.876 2.266-1.913 7.354-1.997-1.041 3.441-2.442 5.497-4.162 6.115zm57.137-9.035c-1.115 7.679-2.341 10.906-2.905 11.133-.07-.007-.19-.076-.31-.25-.466-.67-.615-2.328.368-4.973a35.702 35.702 0 0 1 2.847-5.91zm46.285 14.865c-.098-.012-.193-.09-.281-.232-.485-.786-.561-3.245 1.219-6.806a15.333 15.333 0 0 1 2.143-3.214c-1.039 6.636-2.498 9.968-3.081 10.252zm-15.569-36.297c.975-6.274 2.444-9.839 2.989-10.085.034.01.158.105.292.409.457 1.033.641 3.76-.816 6.673-.63 1.26-1.456 2.266-2.465 3.003zm12.198 6.367c-.587 1.599-.773 3.568-.58 5.411.22 2.192 1.204 4.026 2.586 4.921a1.721 1.721 0 0 1-.858.255c-.512 0-.926-.322-1.183-.592-.904-.949-1.385-2.72-1.286-4.74.094-2.294.582-4.185 1.321-5.255zm4.381 4.739c-.12 2.045-.576 3.342-1.008 4.13-1.171-.72-1.665-2.502-1.726-3.914-.126-2.524.94-4.695 1.789-4.939.071 0 .149.068.203.126.468.498.899 2.148.742 4.597zM19.575 8.28a4.79 4.79 0 0 1 .835-.082c.5 0 1.166.107 1.497.618.326.503.28 1.312-.12 2.21-1.309 2.744-6.05 4.725-10.004 5.039 1.955-4.17 5.024-7.258 7.791-7.785z" fill="#fff"></path>
  </svg>
<svg width="9" height="14" id="next" x="682">
  <path d="M.364 1.68L1.778.27l6.858 6.86-1.415 1.41-.002-.002-5.447 5.442-1.415-1.41 5.447-5.448z" fill="#fff"></path>
  </svg>
<svg width="9" height="14" id="prev" x="691">
  <path d="M8.611 1.69L3.164 7.14l5.44 5.44-1.414 1.41L.333 7.13l1.414-1.41h.003L7.197.28z" fill="#fff"></path>
  </svg>
<svg width="21" height="22" id="radio" x="700">
  <path d="M10.84.88C16.426.88 20.955 5.41 20.955 11c0 5.59-4.529 10.11-10.115 10.11S.725 16.59.725 11 5.254.88 10.84.88zM1.974 11c0 4.9 3.97 8.87 8.866 8.87A8.868 8.868 0 0 0 19.707 11c0-4.9-3.97-8.87-8.867-8.87-4.896 0-8.866 3.97-8.866 8.87z" fill="#f8f7f4"></path>
  </svg>
<svg width="21" height="22" id="radio-active" x="721">
  <path d="M10.84.88C16.426.88 20.955 5.41 20.955 11c0 5.59-4.529 10.11-10.115 10.11S.725 16.59.725 11 5.254.88 10.84.88zM1.974 11c0 4.9 3.97 8.87 8.866 8.87A8.868 8.868 0 0 0 19.707 11c0-4.9-3.97-8.87-8.867-8.87-4.896 0-8.866 3.97-8.866 8.87zm8.868-5.39c2.977 0 5.39 2.41 5.39 5.39 0 2.98-2.413 5.39-5.39 5.39A5.388 5.388 0 0 1 5.451 11c0-2.98 2.413-5.39 5.391-5.39z" fill="#f8f7f4"></path>
  </svg>
<svg width="24.23" height="25.115" id="range-marker" x="742"><defs><filter id="a" width="200%" height="200%" x="-50%" y="-50%"><feGaussianBlur stdDeviation="1" result="SvgjsFeGaussianBlur1033Out" in="SourceGraphic"></feGaussianBlur></filter></defs>
<path d="M726.84 2271.88c5.586 0 10.115 4.53 10.115 10.12 0 5.59-4.529 10.11-10.115 10.11-5.587 0-10.115-4.52-10.115-10.11s4.528-10.12 10.115-10.12z" fill-opacity=".1" filter="url(#a)" transform="translate(-714.385 -2269)"></path>
<path d="M12.455.88C18.041.88 22.57 5.41 22.57 11c0 5.59-4.529 10.11-10.115 10.11C6.868 21.11 2.34 16.59 2.34 11S6.868.88 12.455.88z" fill="#f8f7f4"></path>
  </svg>
<svg width="26.701" height="27.35" id="range-marker-hover" x="767"><defs><filter id="a" width="200%" height="200%" x="-50%" y="-50%"><feGaussianBlur stdDeviation="1" result="SvgjsFeGaussianBlur1039Out" in="SourceGraphic"></feGaussianBlur></filter></defs>
<path d="M629.16 2270.65c6.269 0 11.351 5.08 11.351 11.35s-5.082 11.35-11.351 11.35c-6.268 0-11.35-5.08-11.35-11.35s5.082-11.35 11.35-11.35z" fill-opacity=".1" filter="url(#a)" transform="translate(-615.65 -2268)"></path>
<path d="M13.51.65C19.78.65 24.861 5.73 24.861 12s-5.082 11.35-11.35 11.35C7.241 23.35 2.16 18.27 2.16 12S7.241.65 13.51.65z" fill="#f8f7f4"></path>
  </svg>
<svg width="12" height="11" id="remove" x="794">
  <path d="M.86 1.139l.708-.707 4.36 4.36 4.37-4.369.707.707-4.37 4.37 4.361 4.36-.707.707-4.36-4.36-4.352 4.351-.708-.707L5.221 5.5z" fill="#353535"></path>
  </svg>
<svg width="17" height="17" id="search" x="806">
  <path d="M12.155 10.747h-.758l-.264-.261a6.164 6.164 0 0 0 1.497-4.03c0-3.424-2.779-6.2-6.206-6.2a6.202 6.202 0 0 0-6.206 6.2 6.202 6.202 0 0 0 10.24 4.705l.263.261v.756l4.773 4.76 1.423-1.423zm-5.731 0a4.294 4.294 0 0 1-4.297-4.291 4.294 4.294 0 0 1 4.297-4.292 4.293 4.293 0 0 1 4.296 4.292 4.293 4.293 0 0 1-4.296 4.291z" fill="#fff"></path>
  </svg>
<svg width="17" height="17" id="search-active" x="823">
  <path d="M12.155 10.747h-.758l-.264-.261a6.166 6.166 0 0 0 1.497-4.03A6.203 6.203 0 0 0 6.424.257 6.202 6.202 0 0 0 .218 6.456a6.202 6.202 0 0 0 10.24 4.704l.263.262v.755l4.773 4.76 1.423-1.422zm-5.731 0a4.294 4.294 0 0 1-4.297-4.291 4.294 4.294 0 0 1 4.297-4.292 4.293 4.293 0 0 1 4.296 4.292 4.293 4.293 0 0 1-4.296 4.291z" fill="#333"></path>
  </svg>
<svg width="48" height="49" id="thermometer" x="840">
  <path d="M.482 24.5c0 13.09 10.611 23.7 23.701 23.7 13.089 0 23.702-10.61 23.702-23.7S37.272.8 24.183.8C11.093.8.482 11.41.482 24.5zm23.541 14.83c-3.75 0-6.823-3.04-6.823-6.77 0-1.62.822-3.28 1.822-4.6V13.12c0-2.73 2.244-4.95 5-4.95 2.757 0 5 2.22 5 4.95v14.91c1 1.28 1.778 2.89 1.778 4.53 0 3.73-3.028 6.77-6.777 6.77zm4.799-6.77c0-1.48-.754-2.83-1.754-3.72V13.12c0-1.63-1.374-2.95-3-2.95s-3 1.32-3 2.95v15.66c-1 .88-1.845 2.27-1.845 3.78 0 2.63 2.169 4.77 4.8 4.77 2.633 0 4.799-2.14 4.799-4.77zm-2.093-.14c0 1.53-1.242 2.77-2.774 2.77a2.772 2.772 0 0 1-2.774-2.77c0-1.22.786-2.24 1.873-2.61V12.97c0-.52.425-.94.949-.94s.949.42.949.94v16.87c1.038.4 1.777 1.4 1.777 2.58zM32 16h4c.552 0 1 .45 1 1s-.448 1-1 1h-4c-.552 0-1-.45-1-1s.448-1 1-1zm0-4h4c.552 0 1 .45 1 1s-.448 1-1 1h-4c-.552 0-1-.45-1-1s.448-1 1-1zm0 8h4c.552 0 1 .45 1 1s-.448 1-1 1h-4c-.552 0-1-.45-1-1s.448-1 1-1zm0 4h4c.552 0 1 .45 1 1s-.448 1-1 1h-4c-.552 0-1-.45-1-1s.448-1 1-1zm-7.817 22.2c-11.966 0-21.701-9.73-21.701-21.7 0-11.97 9.735-21.7 21.701-21.7 11.966 0 21.702 9.73 21.702 21.7 0 11.97-9.736 21.7-21.702 21.7z" fill="#323232"></path>
  </svg>
<svg width="33" height="32" id="twitter" x="888">
  <path d="M16.427.17c8.667 0 15.692 7.02 15.692 15.69 0 8.66-7.025 15.69-15.692 15.69C7.761 31.55.736 24.52.736 15.86.736 7.19 7.76.17 16.427.17zm9.138 10.81a7.33 7.33 0 0 1-2.092.57 3.663 3.663 0 0 0 1.601-2.02c-.704.42-1.483.72-2.313.89a3.629 3.629 0 0 0-2.658-1.15 3.641 3.641 0 0 0-3.548 4.47c-3.027-.15-5.711-1.6-7.508-3.81a3.657 3.657 0 0 0 1.128 4.87 3.68 3.68 0 0 1-1.65-.46v.05c0 1.76 1.255 3.23 2.921 3.57-.305.08-.627.13-.96.13a3.86 3.86 0 0 1-.685-.07 3.643 3.643 0 0 0 3.403 2.53 7.29 7.29 0 0 1-4.524 1.56c-.294 0-.584-.02-.868-.05a10.341 10.341 0 0 0 5.583 1.64c6.7 0 10.363-5.55 10.363-10.37 0-.16-.004-.31-.01-.47a7.328 7.328 0 0 0 1.817-1.88z" fill="#fff"></path>
  </svg>
<svg width="32" height="32" id="vkontakte" x="921">
  <path d="M15.865.23c8.666 0 15.691 7.02 15.691 15.69s-7.025 15.69-15.691 15.69S.173 24.59.173 15.92 7.199.23 15.865.23zm5.21 16.05c-.504-.55-1.178-.91-2.016-1.09v-.07a2.881 2.881 0 0 0 1.371-1.14 3.21 3.21 0 0 0 .499-1.77c0-.57-.122-1.08-.362-1.52-.24-.44-.605-.79-1.091-1.05-.449-.24-.931-.4-1.446-.48-.514-.07-1.272-.11-2.269-.11h-4.803v13.59H16.4c.944 0 1.72-.08 2.331-.25a4.774 4.774 0 0 0 1.686-.86c.434-.34.777-.76 1.032-1.27.256-.51.384-1.1.384-1.78 0-.92-.253-1.66-.758-2.2zm-2.973 3.02c-.144.26-.368.45-.68.59-.352.15-.701.23-1.04.24-.341.01-.955.02-1.843.02h-.184v-3.4h.63c.608 0 1.094 0 1.456.01.361.01.647.05.853.13.34.12.596.3.767.54.172.24.255.57.255.99 0 .32-.071.62-.214.88zm-.642-6.41c0 .3-.054.56-.157.79-.102.22-.292.4-.563.53-.25.11-.493.18-.726.19-.235.01-.646.02-1.229.02h-.43v-2.88h.237c.608 0 1.066.01 1.375.01.308.01.573.07.797.17.241.1.415.27.527.5.113.23.169.45.169.67z" fill="#fff"></path>
  </svg>
  </svg>
