<svg xmlns="http://www.w3.org/2000/svg" xmlns:xlink="http://www.w3.org/1999/xlink" width="660" height="49" viewBox="0 0 660 49">
  <svg width="9" height="7" id="arrow-down" x="0">
    <path d="M.556.987h7.802L4.515 6.012h-.123z" fill="#fff"></path>
  </svg>
  <svg width="9" height="7" id="arrow-down-dark" x="9">
    <path d="M.556.987h7.802L4.515 6.012h-.123z" fill="#333"></path>
  </svg>
  <svg width="9" height="14" id="arrow-left" x="18">
    <path d="M8.611 1.69L3.164 7.14l5.44 5.44-1.414 1.41L.333 7.13l1.414-1.41h.003L7.197.28z" fill="#fff"></path>
  </svg>
  <svg width="9" height="14" id="arrow-right" x="27">
    <path d="M.364 1.68L1.778.27l6.858 6.86-1.415 1.41-.002-.002-5.447 5.442-1.415-1.41 5.447-5.448z" fill="#fff"></path>
  </svg>
  <svg width="21" height="20" id="basket" x="36">
    <path d="M20.576 4.46l-1.204 8.912c-.184.922-1.024 1.635-1.882 1.635H6.61c-.859 0-1.696-.713-1.879-1.635L3.262 3.085c-.146-.732-.157-.976-.137-1.054H1a1 1 0 1 1 0-2h4a1 1 0 0 1 1 1 .99.99 0 0 1-.898.979h13.965c1.105 0 1.773 1.131 1.509 2.45zm-3.173 8.518c-.005 0-.004-.003.004-.014l1.186-8.787s.028-.2.031-.2H5.418l1.313 9zM7.246 15.987a1.874 1.874 0 1 1 0 3.748 1.874 1.874 0 0 1 0-3.748zm9 0a1.874 1.874 0 1 1 0 3.748 1.874 1.874 0 0 1 0-3.748z" fill="#fff"></path>
  </svg>
  <svg width="21" height="20" id="basket-active" x="57">
    <path d="M20.58 4.46l-1.21 8.912c-.18.922-1.02 1.635-1.88 1.635H6.61c-.86 0-1.7-.713-1.88-1.635L3.26 3.085c-.14-.732-.15-.976-.13-1.055H1a1.001 1.001 0 0 1 0-2h4c.55 0 1 .448 1 1 0 .517-.4.926-.9.98h13.97c1.1 0 1.77 1.131 1.51 2.45zm-3.18 8.518s0-.003.01-.014l1.18-8.788.03-.198H5.42l1.31 9zM7.25 15.986a1.875 1.875 0 1 1-.01 3.75 1.875 1.875 0 0 1 .01-3.75zm9 0a1.875 1.875 0 1 1-.01 3.75 1.875 1.875 0 0 1 .01-3.75z" fill="#343434"></path>
  </svg>
  <svg width="38" height="38" id="border" x="78">
    <path d="M18.925.24c10.284 0 18.62 8.33 18.62 18.62 0 10.28-8.336 18.62-18.62 18.62C8.642 37.48.306 29.14.306 18.86.306 8.57 8.642.24 18.925.24zM3.173 18.92c0 8.67 7.025 15.69 15.692 15.69 8.666 0 15.691-7.02 15.691-15.69S27.531 3.23 18.865 3.23c-8.667 0-15.692 7.02-15.692 15.69z" fill="#fff"></path>
  </svg>
  <svg width="12.53" height="9.463" id="check" x="116">
    <path d="M12.53 1.765L6.6 7.696l.001.001-1.765 1.766-.001-.002-.002.002-1.765-1.766.001-.001L0 4.626l1.765-1.765 3.07 3.07L10.765 0z" fill="#fff"></path>
  </svg>
  <svg width="18" height="17" id="close" x="129">
    <path d="M.451 1.21L1.633.028l7.29 7.29L16.227.012l1.182 1.182-7.304 7.304 7.289 7.29-1.182 1.182-7.29-7.29-7.274 7.275-1.182-1.182L7.74 8.499z"></path>
  </svg>
  <svg width="48" height="49" id="cow" x="147">
    <path d="M.482 24.5c0 13.09 10.611 23.7 23.701 23.7 13.089 0 23.702-10.61 23.702-23.7S37.272.8 24.183.8C11.093.8.482 11.41.482 24.5zm39.096-.5c-.259.39-.879 1.04-2.127 1.04-.89 0-2.201-.38-3.256-.84.229 2.52-.273 5.4-1.576 8.35.472.95.672 2 .517 3.08-.488 3.38-4.283 5.23-8.524 5.23-4.241 0-8.018-1.85-8.48-5.23-.124-.91.004-1.8.33-2.62-1.443-3.08-2.012-6.09-1.786-8.73-1.019.43-2.228.76-3.065.76-1.248 0-1.868-.65-2.127-1.04-.426-.65-.485-1.46-.162-2.22.812-1.91 3.593-2.74 4.75-3.01l.096-.02c-1.399-2.9-.723-7.6-.197-9.19l3.057.25c.056 1 .766 2.88 3.436 5.01l1.585 1.09c.751-.14 1.537-.23 2.397-.23.818 0 1.57.08 2.289.21l1.692-1.16c2.67-2.13 3.38-4.01 3.435-5.01l3.058-.26c.528 1.6 1.207 6.35-.224 9.24l.294.07c1.157.27 3.937 1.1 4.75 3.01.323.76.265 1.57-.162 2.22zm-21.772-3.21c-1.752 2.75-1.578 7 .467 11.37l.367.78-.318.8a3.209 3.209 0 0 0-.208 1.62c.329 2.41 3.599 3.5 6.498 3.5 2.907 0 6.196-1.1 6.545-3.52a3.177 3.177 0 0 0-.33-1.9l-.416-.84.378-.86c1.878-4.25 1.97-8.37.244-11.02-1.297-1.99-3.575-3.04-6.587-3.04-3.05 0-5.346 1.07-6.64 3.11zm1.523-4.32s-3.595-2.48-3.735-5.02c-.404 2.18-.584 5.62.705 6.99.644-.33 1.66-1.41 3.03-1.97zm13.263 1.87c1.289-1.37 1.108-4.81.705-6.98-.141 2.54-3.736 5.01-3.736 5.01 1.371.57 2.386 1.65 3.031 1.97zm5.307 4.23c-.503-1.19-3.361-1.85-3.361-1.85-.118.56-.148.68-.474 1.15.681.56 4.338 1.88 3.835.7zm-23.39-1.85s-2.859.66-3.362 1.85c-.502 1.18 3.155-.14 3.835-.7-.325-.47-.355-.59-.473-1.15zm9.674 25.48c-11.966 0-21.701-9.73-21.701-21.7 0-11.97 9.735-21.7 21.701-21.7 11.966 0 21.702 9.73 21.702 21.7 0 11.97-9.736 21.7-21.702 21.7z" fill="#323232"></path>
  </svg>
  <svg width="49" height="49" id="eco" x="195">
    <path d="M.798 24.5c0 13.09 10.612 23.7 23.702 23.7C37.589 48.2 48.2 37.59 48.2 24.5S37.59.8 24.5.8C11.41.8.798 11.41.798 24.5zm23.64 16.12s-22.24-10.18 0-32.75c22.24 22.57 0 32.75 0 32.75zm7.515-17.18l-6.537 4.16-.02 3.68 6.894-4.41c.046-1.11-.078-2.26-.337-3.43zM23.396 37.7v-4.21l-6.417-4.13c1.106 4.14 4.316 6.93 6.417 8.34zm8.463-8.2l-6.443 4.1-.02 4.16c2.07-1.36 5.305-4.11 6.463-8.26zm-15.296-2.87l6.833 4.48v-3.62l-6.453-4.15c-.255 1.12-.402 2.22-.38 3.29zm6.833-1.52v-3.63l-4.4-3.38a21.745 21.745 0 0 0-1.464 3.24zm2.02-3.51l-.02 3.68 5.98-3.85a21.74 21.74 0 0 0-1.336-3.01zm-.02-2.3l3.63-2.6c-.988-1.57-2.198-3.17-3.63-4.82zm-2-.28v-7.04a39.181 39.181 0 0 0-3.356 4.42zM24.5 46.2c-11.967 0-21.701-9.73-21.701-21.7 0-11.97 9.734-21.7 21.7-21.7 11.967 0 21.702 9.73 21.702 21.7 0 11.97-9.735 21.7-21.701 21.7z" fill="#323232"></path>
  </svg>
  <svg width="32" height="32" id="facebook" x="244">
    <path d="M15.865.23c8.666 0 15.691 7.02 15.691 15.69s-7.025 15.69-15.691 15.69C7.198 31.61.173 24.59.173 15.92S7.198.23 15.865.23zm.773 24.99v-9.29h2.743l.285-3.09h-3.028l.005-1.86c0-.89.085-1.26 1.367-1.26h1.764V6.3h-2.792c-3.294 0-4.082 1.54-4.082 4.34v2.2h-1.889v3.09H12.9v9.29z" fill="#fff"></path>
  </svg>
  <svg width="15" height="13" id="favorite" x="276">
    <path d="M7.606 12.73l.019-.01.019.01s0-.007.003-.02c.583-.297 7.244-3.782 7.244-8.2 0-5.102-5.435-5.931-7.266-1.78C5.794-1.42.359-.591.359 4.51c0 4.418 6.66 7.903 7.244 8.2l.003.02z" fill="#f7f8f8"></path>
  </svg>
  <svg width="49" height="49" id="ice-cream" x="291">
    <path d="M24.5.8C37.589.8 48.2 11.41 48.2 24.5S37.59 48.2 24.5 48.2C11.41 48.2.799 37.59.799 24.5S11.409.8 24.499.8zm5.954 9.65a8.516 8.516 0 0 0-6.063-2.51c-2.291 0-4.445.89-6.064 2.51a8.511 8.511 0 0 0-2.512 6.06v14.68c0 .45.362.81.81.81h15.532c.446 0 .809-.36.809-.81V16.51c0-2.29-.892-4.44-2.512-6.06zm.894 19.93H17.433V19.49c.045.05.092.1.143.16.43.47 1.017 1.13 2.154 1.13s1.726-.66 2.155-1.13c.37-.42.55-.6.946-.6.023.01.136.09.309.43.172.33.333.79.488 1.22.203.58.414 1.17.697 1.65.424.72.968 1.08 1.618 1.08.65 0 1.195-.36 1.62-1.08.282-.48.492-1.07.696-1.65.155-.43.316-.89.489-1.22.172-.34.285-.42.308-.43.395 0 .576.18.946.6.314.34.712.79 1.346 1zm-9.006 8.58c0 1.13.917 2.05 2.049 2.05 1.131 0 2.049-.92 2.049-2.05V32.8h-4.098zm23.86-14.46c0-11.97-9.736-21.7-21.702-21.7-11.967 0-21.701 9.73-21.701 21.7 0 11.97 9.734 21.7 21.7 21.7 11.967 0 21.702-9.73 21.702-21.7z" fill="#323232"></path>
  </svg>
  <svg width="32" height="32" id="instagram" x="340">
    <path d="M15.865.23c8.666 0 15.691 7.02 15.691 15.69s-7.025 15.69-15.691 15.69S.173 24.59.173 15.92 7.2.23 15.865.23zm6.271 23.61c.964 0 1.745-.78 1.745-1.75V9.78c0-.96-.781-1.74-1.745-1.74H9.81c-.964 0-1.745.78-1.745 1.74v12.31c0 .97.78 1.75 1.744 1.75zm.005-9.1v6.78c0 .34-.274.61-.612.61H10.464a.609.609 0 0 1-.611-.61v-6.78h1.38a4.927 4.927 0 0 0 4.764 6.16 4.927 4.927 0 0 0 4.764-6.16h1.38zm-6.143-1.61c1.567 0 3.066 1.15 3.066 2.84s-1.499 2.84-3.066 2.84a2.838 2.838 0 0 1-2.839-2.84c0-1.57 1.27-2.84 2.839-2.84zm3.697-3.31h1.865c.338 0 .611.27.611.61v1.86c0 .34-.273.61-.611.61h-1.865a.609.609 0 0 1-.611-.61v-1.86c0-.34.274-.61.611-.61z" fill="#fff"></path>
  </svg>
  <svg width="22" height="19" id="login" x="372">
    <path d="M4 3.969v-.96a3 3 0 0 1 3-3h11.059a3 3 0 0 1 3 3v12.977a3 3 0 0 1-3 3H7a3 3 0 0 1-3-3V15h2v2h13V2H6v1.969zM.995 6.9h6.029V4.158l7.027 5.3-7.027 5.3v-2.743H.995z" fill="#fff"></path>
  </svg>
  <svg width="22" height="19" id="login-active" x="394">
    <path d="M4 3.968v-.96a3 3 0 0 1 3-3h11.059a3 3 0 0 1 3 3v12.977a3.001 3.001 0 0 1-3 3.001H7a3 3 0 0 1-3-3.001V15h2v2h13V1.999H6v1.969zM.995 6.901h6.029V4.158l7.027 5.3-7.027 5.299v-2.743H.995z" fill="#353535"></path>
  </svg>
  <svg width="24.23" height="25.115" id="range-marker" x="416"><defs><filter id="a" width="200%" height="200%" x="-50%" y="-50%"><feGaussianBlur stdDeviation="1" result="SvgjsFeGaussianBlur1033Out" in="SourceGraphic"></feGaussianBlur></filter></defs>
  <path d="M726.84 2271.88c5.586 0 10.115 4.53 10.115 10.12 0 5.59-4.529 10.11-10.115 10.11-5.587 0-10.115-4.52-10.115-10.11s4.528-10.12 10.115-10.12z" fill-opacity=".1" filter="url(#a)" transform="translate(-714.385 -2269)"></path>
  <path d="M12.455.88C18.041.88 22.57 5.41 22.57 11c0 5.59-4.529 10.11-10.115 10.11C6.868 21.11 2.34 16.59 2.34 11S6.868.88 12.455.88z" fill="#f8f7f4"></path>
  </svg>
  <svg width="26.701" height="27.35" id="range-marker-hover" x="441"><defs><filter id="a" width="200%" height="200%" x="-50%" y="-50%"><feGaussianBlur stdDeviation="1" result="SvgjsFeGaussianBlur1039Out" in="SourceGraphic"></feGaussianBlur></filter></defs>
  <path d="M629.16 2270.65c6.269 0 11.351 5.08 11.351 11.35s-5.082 11.35-11.351 11.35c-6.268 0-11.35-5.08-11.35-11.35s5.082-11.35 11.35-11.35z" fill-opacity=".1" filter="url(#a)" transform="translate(-615.65 -2268)"></path>
  <path d="M13.51.65C19.78.65 24.861 5.73 24.861 12s-5.082 11.35-11.35 11.35C7.241 23.35 2.16 18.27 2.16 12S7.241.65 13.51.65z" fill="#f8f7f4"></path>
  </svg>
  <svg width="12" height="11" id="remove" x="468">
    <path d="M.86 1.139l.708-.707 4.36 4.36 4.37-4.369.707.707-4.37 4.37 4.361 4.36-.707.707-4.36-4.36-4.352 4.351-.708-.707L5.221 5.5z" fill="#353535"></path>
  </svg>
  <svg width="32.233" height="37.863" id="rub" x="480"><defs><filter id="a" width="200%" height="200%" x="-50%" y="-50%"><feGaussianBlur stdDeviation="1.5" result="SvgjsFeGaussianBlur1009Out" in="SourceGraphic"></feGaussianBlur></filter></defs>
  <path d="M699.144 589.535h3.682v-14.5h8.889c3.909 0 6.026.182 7.253.5 3.637.955 6.409 4.227 6.409 9.318 0 5.818-3.727 8.863-7.091 9.591-1.545.318-3.344.454-6.253.454h-3.039v2.728h15.02v5.363h-15.02v3.909h-6.168v-3.909h-3.682v-5.363h3.682v-2.728h-3.682zm9.85-9.091v9.045h2.358c2.545 0 3.798-.182 4.662-.5 1.636-.591 2.727-2.181 2.727-4.045 0-2.318-1.545-3.909-3.591-4.273-.773-.136-1.889-.227-4.208-.227z" fill="#313235" fill-opacity=".5" filter="url(#a)" transform="translate(-695.883 -571.969)"></path>
  <path d="M2.76 16.666h3.683v-14.5h8.889c3.909 0 6.026.182 7.253.5 3.637.955 6.409 4.227 6.409 9.318 0 5.818-3.727 8.863-7.091 9.591-1.545.318-3.344.454-6.253.454h-3.04v2.728h15.02v5.363H12.61v3.91H6.444v-3.91H2.76v-5.363h3.682V22.03H2.76zm9.85-9.09v9.044h2.359c2.545 0 3.798-.182 4.662-.5 1.636-.59 2.727-2.18 2.727-4.045 0-2.318-1.545-3.909-3.591-4.273-.773-.136-1.89-.227-4.208-.227z" fill="#fff"></path>
  </svg>
  <svg width="17" height="17" id="search" x="513">
    <path d="M12.155 10.747h-.758l-.264-.261a6.164 6.164 0 0 0 1.497-4.03c0-3.424-2.779-6.2-6.206-6.2a6.202 6.202 0 0 0-6.206 6.2 6.202 6.202 0 0 0 10.24 4.705l.263.261v.756l4.773 4.76 1.423-1.423zm-5.731 0a4.294 4.294 0 0 1-4.297-4.291 4.294 4.294 0 0 1 4.297-4.292 4.293 4.293 0 0 1 4.296 4.292 4.293 4.293 0 0 1-4.296 4.291z" fill="#fff"></path>
  </svg>
  <svg width="17" height="17" id="search-active" x="530">
    <path d="M12.155 10.747h-.758l-.264-.261a6.166 6.166 0 0 0 1.497-4.03A6.203 6.203 0 0 0 6.424.257 6.202 6.202 0 0 0 .218 6.456a6.202 6.202 0 0 0 10.24 4.704l.263.262v.755l4.773 4.76 1.423-1.422zm-5.731 0a4.294 4.294 0 0 1-4.297-4.291 4.294 4.294 0 0 1 4.297-4.292 4.293 4.293 0 0 1 4.296 4.292 4.293 4.293 0 0 1-4.296 4.291z" fill="#333"></path>
  </svg>
  <svg width="48" height="49" id="thermometer" x="547">
    <path d="M.482 24.5c0 13.09 10.611 23.7 23.701 23.7 13.089 0 23.702-10.61 23.702-23.7S37.272.8 24.183.8C11.093.8.482 11.41.482 24.5zm23.541 14.83c-3.75 0-6.823-3.04-6.823-6.77 0-1.62.822-3.28 1.822-4.6V13.12c0-2.73 2.244-4.95 5-4.95 2.757 0 5 2.22 5 4.95v14.91c1 1.28 1.778 2.89 1.778 4.53 0 3.73-3.028 6.77-6.777 6.77zm4.799-6.77c0-1.48-.754-2.83-1.754-3.72V13.12c0-1.63-1.374-2.95-3-2.95s-3 1.32-3 2.95v15.66c-1 .88-1.845 2.27-1.845 3.78 0 2.63 2.169 4.77 4.8 4.77 2.633 0 4.799-2.14 4.799-4.77zm-2.093-.14c0 1.53-1.242 2.77-2.774 2.77a2.772 2.772 0 0 1-2.774-2.77c0-1.22.786-2.24 1.873-2.61V12.97c0-.52.425-.94.949-.94s.949.42.949.94v16.87c1.038.4 1.777 1.4 1.777 2.58zM32 16h4c.552 0 1 .45 1 1s-.448 1-1 1h-4c-.552 0-1-.45-1-1s.448-1 1-1zm0-4h4c.552 0 1 .45 1 1s-.448 1-1 1h-4c-.552 0-1-.45-1-1s.448-1 1-1zm0 8h4c.552 0 1 .45 1 1s-.448 1-1 1h-4c-.552 0-1-.45-1-1s.448-1 1-1zm0 4h4c.552 0 1 .45 1 1s-.448 1-1 1h-4c-.552 0-1-.45-1-1s.448-1 1-1zm-7.817 22.2c-11.966 0-21.701-9.73-21.701-21.7 0-11.97 9.735-21.7 21.701-21.7 11.966 0 21.702 9.73 21.702 21.7 0 11.97-9.736 21.7-21.702 21.7z" fill="#323232"></path>
  </svg>
  <svg width="33" height="32" id="twitter" x="595">
    <path d="M16.427.17c8.667 0 15.692 7.02 15.692 15.69 0 8.66-7.025 15.69-15.692 15.69C7.761 31.55.736 24.52.736 15.86.736 7.19 7.76.17 16.427.17zm9.138 10.81a7.33 7.33 0 0 1-2.092.57 3.663 3.663 0 0 0 1.601-2.02c-.704.42-1.483.72-2.313.89a3.629 3.629 0 0 0-2.658-1.15 3.641 3.641 0 0 0-3.548 4.47c-3.027-.15-5.711-1.6-7.508-3.81a3.657 3.657 0 0 0 1.128 4.87 3.68 3.68 0 0 1-1.65-.46v.05c0 1.76 1.255 3.23 2.921 3.57-.305.08-.627.13-.96.13a3.86 3.86 0 0 1-.685-.07 3.643 3.643 0 0 0 3.403 2.53 7.29 7.29 0 0 1-4.524 1.56c-.294 0-.584-.02-.868-.05a10.341 10.341 0 0 0 5.583 1.64c6.7 0 10.363-5.55 10.363-10.37 0-.16-.004-.31-.01-.47a7.328 7.328 0 0 0 1.817-1.88z" fill="#fff"></path>
  </svg>
  <svg width="32" height="32" id="vkontakte" x="628">
    <path d="M15.865.23c8.666 0 15.691 7.02 15.691 15.69s-7.025 15.69-15.691 15.69S.173 24.59.173 15.92 7.199.23 15.865.23zm5.21 16.05c-.504-.55-1.178-.91-2.016-1.09v-.07a2.881 2.881 0 0 0 1.371-1.14 3.21 3.21 0 0 0 .499-1.77c0-.57-.122-1.08-.362-1.52-.24-.44-.605-.79-1.091-1.05-.449-.24-.931-.4-1.446-.48-.514-.07-1.272-.11-2.269-.11h-4.803v13.59H16.4c.944 0 1.72-.08 2.331-.25a4.774 4.774 0 0 0 1.686-.86c.434-.34.777-.76 1.032-1.27.256-.51.384-1.1.384-1.78 0-.92-.253-1.66-.758-2.2zm-2.973 3.02c-.144.26-.368.45-.68.59-.352.15-.701.23-1.04.24-.341.01-.955.02-1.843.02h-.184v-3.4h.63c.608 0 1.094 0 1.456.01.361.01.647.05.853.13.34.12.596.3.767.54.172.24.255.57.255.99 0 .32-.071.62-.214.88zm-.642-6.41c0 .3-.054.56-.157.79-.102.22-.292.4-.563.53-.25.11-.493.18-.726.19-.235.01-.646.02-1.229.02h-.43v-2.88h.237c.608 0 1.066.01 1.375.01.308.01.573.07.797.17.241.1.415.27.527.5.113.23.169.45.169.67z" fill="#fff"></path>
  </svg>
  </svg>
