<svg xmlns="http://www.w3.org/2000/svg" width="108" height="38"><path d="M105.868 20.3h1.935l-3.888 9.42c-.899 2.16-2.074 2.89-3.336 2.89-.362 0-.725-.06-1.089-.14v-1.58c.277.09.571.13.847.13.899 0 1.573-.64 2.057-1.94l.173-.41-3.941-8.37h1.971l2.799 6.26zm-50.596-6.23V5.78h1.642v1.03c.449-.5 1.417-1.26 2.765-1.26 1.245 0 2.109.52 2.593 1.33.725-.72 1.693-1.33 2.903-1.33 2.195 0 3.146 1.63 3.146 3.34v5.18h-1.85V8.94c0-1.07-.639-1.75-1.642-1.75-.915 0-1.624.61-2.056 1.13.017.19.035.38.035.57v5.18h-1.85V8.94c0-1.07-.639-1.75-1.642-1.75-1.002 0-1.763.73-2.195 1.28v5.6zm29.39 14.53v-8.3h1.642v1.04c.449-.5 1.417-1.26 2.765-1.26 1.244 0 2.108.51 2.592 1.33.726-.73 1.694-1.33 2.904-1.33 2.194 0 3.145 1.62 3.145 3.33v5.19h-1.849v-5.14c0-1.07-.64-1.74-1.642-1.74-.916 0-1.625.6-2.056 1.12.017.19.034.38.034.57v5.19h-1.849v-5.14c0-1.07-.64-1.74-1.642-1.74-1.002 0-1.763.72-2.195 1.28v5.6zM72.875 16.5v12.1h-1.659v-1.32c-.64.81-1.625 1.54-3.18 1.54-2.506 0-4.113-1.99-4.113-4.37 0-2.39 1.607-4.37 4.113-4.37 1.452 0 2.419.64 2.99 1.29V16.5zM38.734 1.97v4.72a3.782 3.782 0 0 1 2.678-1.14c2.092 0 3.422 1.42 3.422 3.39v5.13h-1.849V9.18c0-1.35-.83-1.99-1.935-1.99-1.055 0-1.85.71-2.316 1.39v5.49h-1.85V1.97zm23.875 25.31c.19 0 .38-.05.553-.1v1.33c-.345.14-.76.21-1.175.21-.76 0-1.365-.3-1.659-.97-.812.66-1.832 1.07-3.128 1.07-1.504 0-2.904-.83-2.904-2.54 0-2.13 1.971-2.78 3.699-2.78.708 0 1.503.1 2.16.24v-.29c0-1.04-.76-1.77-2.178-1.77-1.227 0-2.246.31-2.989.64v-1.69c.657-.23 1.849-.55 3.18-.55 2.35 0 3.836 1.12 3.836 3.63v2.97c0 .46.277.6.605.6.328 0 0 0 0 0zm-18.008 0c.19 0 .38-.05.553-.1v1.33c-.346.14-.761.21-1.175.21-.761 0-1.366-.3-1.66-.97-.812.66-1.831 1.07-3.128 1.07-1.503 0-2.903-.83-2.903-2.54 0-2.13 1.97-2.78 3.698-2.78.709 0 1.504.1 2.161.24v-.29c0-1.04-.761-1.77-2.178-1.77a7.36 7.36 0 0 0-2.99.64v-1.69c.657-.23 1.85-.55 3.18-.55 2.351 0 3.837 1.12 3.837 3.63v2.97c0 .46.277.6.605.6.328 0 0 0 0 0zm5.297-24.46v2.96h3.008V7.4h-3.008v3.8c0 1.09.501 1.45 1.573 1.45.605 0 1.158-.12 1.676-.32v1.59c-.622.22-1.417.36-2.229.36-1.608 0-2.852-.8-2.852-2.73V7.4H46.58V5.78h1.486V3.27zm28.974 17.26c3.301 0 4.442 2.66 3.906 5.06h-6.239c.208 1.49 1.659 2.11 3.18 2.11 1.002 0 1.918-.24 2.627-.59v1.59c-.76.36-1.815.57-2.973.57-2.54 0-4.701-1.45-4.701-4.37 0-3.01 2.282-4.37 4.2-4.37 1.918 0 0 0 0 0zm-28.378 0c.933 0 1.832.2 2.558.64v1.69c-.605-.43-1.452-.69-2.299-.69-1.468 0-2.955.78-2.955 2.73 0 1.88 1.434 2.73 2.921 2.73.881 0 1.763-.26 2.419-.64v1.71c-.795.38-1.693.57-2.748.57-2.212 0-4.476-1.35-4.476-4.3 0-3.1 2.368-4.44 4.58-4.44zm15.295 4.37c0 1.62 1.089 2.75 2.575 2.75 1.297 0 2.247-.83 2.644-1.75v-2.02c-.397-.9-1.347-1.73-2.644-1.73-1.486 0-2.575 1.12-2.575 2.75zM71 14V2h2v12zM38.189 26.16c0 .81.726 1.23 1.555 1.23.882 0 1.746-.33 2.403-.99V25c-.501-.1-1.21-.21-1.798-.21-1.054 0-2.16.33-2.16 1.37zm18.008 0c0 .81.726 1.23 1.556 1.23.881 0 1.745-.33 2.402-.99V25c-.501-.1-1.21-.21-1.797-.21-1.055 0-2.161.33-2.161 1.37zm20.325-2.4h4.597c.104-.73-.346-2.15-2.16-2.15-1.245 0-2.368.75-2.437 2.15zM29.155 2.05V28.6l-14.484 8.61L.187 28.6V2.05L14.671.53l.152.02zm-1.894 14.41l-3.884 2.31v4.29h.01v1.31l-8.716 5.22-8.633-5.19.012-1.31 8.631 5.13-.021-1.39-8.634-5.18.013-1.32 8.599 5.12-.021-1.35-12.535-7.46v10.88l12.589 7.49 12.59-7.49zM14.6 7.67L2.109 15.18l12.473 7.41 2.133-1.28-2.094-1.23.013-1.31 3.19 1.88.024-.02.997-.66-4.224-2.52.013-1.31 5.351 3.18.92-.54.14-.08.057-.03-6.481-3.86.013-1.31 7.582 4.51 1.59-.94 3.444-2.03z" fill="#fff"/></svg>