<svg id="SvgjsSvg1000" xmlns="http://www.w3.org/2000/svg" version="1.1" xmlns:xlink="http://www.w3.org/1999/xlink" xmlns:svgjs="http://svgjs.com/svgjs" width="32.233000000000175" height="37.86299999999983"><defs id="SvgjsDefs1001"><filter id="SvgjsFilter1008" width="200%" height="200%" x="-50%" y="-50%"><feGaussianBlur id="SvgjsFeGaussianBlur1009" stdDeviation="1.5 " result="SvgjsFeGaussianBlur1009Out" in="SourceGraphic"></feGaussianBlur></filter></defs><path id="SvgjsPath1007" d="M699.144 589.535L702.826 589.535L702.826 575.035L711.715 575.035C715.624 575.035 717.741 575.217 718.9680000000001 575.535C722.605 576.49 725.3770000000001 579.762 725.3770000000001 584.853C725.3770000000001 590.6709999999999 721.6500000000001 593.716 718.2860000000001 594.444C716.7410000000001 594.762 714.942 594.8979999999999 712.033 594.8979999999999L708.994 594.8979999999999L708.994 597.6259999999999L724.014 597.6259999999999L724.014 602.9889999999999L708.994 602.9889999999999L708.994 606.8979999999999L702.826 606.8979999999999L702.826 602.9889999999999L699.144 602.9889999999999L699.144 597.6259999999999L702.826 597.6259999999999L702.826 594.8979999999999L699.144 594.8979999999999ZM708.994 580.444L708.994 589.4889999999999L711.352 589.4889999999999C713.8969999999999 589.4889999999999 715.15 589.3069999999999 716.014 588.9889999999999C717.65 588.3979999999999 718.741 586.8079999999999 718.741 584.944C718.741 582.626 717.196 581.035 715.15 580.6709999999999C714.377 580.535 713.261 580.444 710.942 580.444Z " fill="#313235" fill-opacity="0.5" filter="url(#SvgjsFilter1008)" transform="matrix(1,0,0,1,-695.8834999999999,-571.9685000000001)"></path><path id="SvgjsPath1010" d="M698.644 588.635L702.326 588.635L702.326 574.135L711.215 574.135C715.124 574.135 717.241 574.317 718.4680000000001 574.635C722.105 575.59 724.8770000000001 578.862 724.8770000000001 583.953C724.8770000000001 589.771 721.1500000000001 592.816 717.7860000000001 593.544C716.2410000000001 593.862 714.442 593.9979999999999 711.533 593.9979999999999L708.494 593.9979999999999L708.494 596.7259999999999L723.514 596.7259999999999L723.514 602.0889999999999L708.494 602.0889999999999L708.494 605.9979999999999L702.326 605.9979999999999L702.326 602.0889999999999L698.644 602.0889999999999L698.644 596.7259999999999L702.326 596.7259999999999L702.326 593.9979999999999L698.644 593.9979999999999ZM708.494 579.544L708.494 588.5889999999999L710.852 588.5889999999999C713.3969999999999 588.5889999999999 714.65 588.4069999999999 715.514 588.0889999999999C717.15 587.4979999999999 718.241 585.9079999999999 718.241 584.044C718.241 581.726 716.696 580.135 714.65 579.771C713.877 579.635 712.761 579.544 710.442 579.544Z " fill="#ffffff" transform="matrix(1,0,0,1,-695.8834999999999,-571.9685000000001)"></path></svg>