<svg xmlns="http://www.w3.org/2000/svg" width="154" height="64"><path d="M60.332 42.056c-.238-.178-.425-.317-.671-.317-.402 0-.559.339-.662.562-.053.114-.125.269-.245.473-.596 1.076-2.532 1.622-5.755 1.622-3.766 0-8.777-.758-13.18-1.5-5.3-.903-11.343-1.862-16.306-2.207.906-3.967 1.569-9.097 2.025-15.684 0-.594-.904-.727-1.22-.727-.4 0-1.708.165-1.786 2.288l-.132 2.548c-.466 2.513-1.867 6.76-6.016 6.963a5.159 5.159 0 0 1-.277.007c-1.628 0-3-.62-4.082-1.842-1.966-2.222-2.794-6.368-2.215-11.088.205-1.638.558-3.21 1.078-4.793 6.623-.153 12.936-3.16 14.472-6.93.592-1.443.52-2.882-.195-3.95-.9-1.34-2.717-1.935-4.95-1.635-4.624.597-9.215 4.48-11.788 9.94-2.911-.824-5.416-3.298-4.78-6.646.917-4.905 7.432-6.508 9.575-6.508.412 0 .582.054.626.07.287.11.617.17.93.17.634 0 1.07-.246 1.162-.659.163-.72-.817-1.186-1.194-1.366-.257-.115-.634-.172-1.152-.172C10.674.675 2.25 2.713.938 9.277c-.395 1.974-.086 3.731.918 5.221 1.133 1.682 3.177 2.957 5.665 3.55-.596 1.66-1.007 3.508-1.224 5.504-.54 4.97.538 9.365 2.956 12.06 1.657 1.846 3.872 2.822 6.408 2.822l.302-.005c2.278-.107 4.261-1.009 5.819-2.626-.225 1.796-.496 3.377-.823 4.789a50.074 50.074 0 0 0-1.064-.012c-5.93 0-9.245 1.228-10.428 3.857-.681 1.459-.582 3.008.28 4.364 1.07 1.68 3.118 2.765 5.22 2.765.323 0 .646-.027.967-.08 3.221-.576 5.467-3.344 7.048-8.7 4.364.208 9.853.984 16.325 2.305.975.202 1.958.412 2.939.621 5.341 1.137 10.386 2.21 14.055 2.21 2.11 0 3.573-.365 4.466-1.112.892-.725 1.052-1.587 1.03-2.182-.039-.973-.619-1.986-1.465-2.572zm18.025-19.293l-.15-.192c-.154-.197-.416-.288-.823-.288-.87 0-2.3.415-2.427 1.511-.122.765-.25 2.066-.342 3.452-.654 5.235-2.203 8.13-3.025 8.13a.924.924 0 0 1-.733-.34c-1.068-1.212-1.183-5.218-.34-11.9l.016-.271-.15-.173c-.151-.174-.397-.255-.775-.255-.882 0-2.33.42-2.46 1.553-.27 2.59-.334 4.886-.19 6.827-.592 1.903-1.921 4.984-4.317 4.984-.617 0-1.207-.272-1.705-.787-1.004-1.038-1.559-2.961-1.485-5.14.162-3.704 1.283-6.605 2.553-6.605.41 0 .574.163.66.286.403.57.227 1.958-.153 3.028l-.085.227c-.176.467-.292.775-.088 1.071.09.128.292.35.904.215.746-.14 2.268-.94 2.4-1.938.042-.56.092-2.48-1.028-3.689-.568-.611-1.317-.92-2.228-.92-3.25 0-5.89 3.796-6.141 8.84-.011.322-.008.635.005.94-.887 3.468-1.615 4.68-1.902 4.939-.238-.398-.552-2.322.433-7.49l.014-.279-.15-.173c-.161-.185-.443-.276-.864-.276-.966 0-2.091.441-2.279 1.416a7.63 7.63 0 0 0-.102.873l-.025.316c-.552 3.1-1.664 4.721-2.477 4.721-.122 0-.283-.102-.44-.28-.668-.755-1.244-2.725-.93-5.268.409-3.416 1.795-5.71 3.449-5.71.506 0 .845.11 1.007.331.23.313.202.94-.076 1.838l-.05.135c-.211.568-.338.91-.116 1.23.092.13.355.348.896.233.751-.14 2.27-1.026 2.4-2.031.054-.927-.237-1.778-.82-2.396-.458-.484-1.325-1.061-2.86-1.061-2.827 0-6.365 2.138-7.02 8.196-1.06 3.52-2.406 5.16-2.982 5.16-.762 0-1.956-2.253-2.253-7.256 1.849-3.023 4.26-8.364 5.368-12.885.824-3.547 1.376-9.307.024-11.01-.367-.462-.795-.559-1.09-.559-3.948 0-7.128 12.154-7.67 20.869a27.24 27.24 0 0 0 .058 4.036c-.884 4.186-2.55 6.853-3.316 6.853-.716 0-1.839-2.136-2.122-6.88 1.76-2.882 4.057-7.966 5.112-12.273.786-3.384 1.31-8.88.018-10.508-.356-.447-.77-.541-1.057-.541-3.774 0-6.811 11.589-7.328 19.898-.348 6.01 1.305 10.023 2.826 11.634.66.7 1.382 1.07 2.085 1.07 1.841 0 3.5-2.5 4.574-5.107.962 3.124 2.596 5.128 4.281 5.128 1.282 0 2.661-1.237 3.876-3.44.728 2.058 2.158 3.127 3.394 3.127.054 0 .108-.003.17-.007 1.179-.104 2.307-1.016 3.258-2.607.384 2.143 1.215 3.415 2.297 3.415 1.318 0 2.428-1.844 3.23-3.771 1.008 2.095 2.836 3.39 4.913 3.39 2.065 0 4.04-1.473 5.54-4.09.923 3.043 2.593 3.538 3.58 3.538.982 0 1.945-.712 2.814-2.05l-.03.278a29.309 29.309 0 0 0-5.63 9.629c-1.05 2.935-1.025 6.062.062 7.606.42.595.972.91 1.596.91 1.85 0 4.65-2.534 7.58-24.438a156.7 156.7 0 0 0 .796-6.653zm72.895 22.564c-1.742-1.855-4.228-2.08-7.003-2.08h-.236c-1.893-2-4.913-4.154-8.977-4.4-3.495-.227-6.363-.225-8.835.831.083-.669.152-1.546.209-2.224.518.208 1.058.21 1.635.21 3.068 0 6.287-2.584 6.567-8.248.133-3.125-.38-5.41-1.485-6.563-.536-.559-1.208-.867-1.943-.867-1.646 0-3.188 1.443-4.394 4.055a109.86 109.86 0 0 0-.011-.77c-.008-.478-.015-.871-.015-1.313 0-1.105-.053-1.731-1.137-1.731-.39 0-.784.175-1.081.48-.293.302-.636.884-.606 1.939.027 1.384.032 2.785.017 4.281-.5 2.245-1.406 4.01-2.34 4.697.501-1.186.874-2.61 1.113-4.254.416-3.022-.042-5.637-1.227-6.996-.568-.652-1.254-.948-1.986-.818-.845.152-1.546.605-2.11 1.259-.202-.405-.723-.559-1.251-.341-2.581 1.022-4.222 4.027-4.39 8.038-.101 2.49.569 4.615 1.886 5.987.883.92 1.972 1.405 3.153 1.405 1.361 0 2.652-.767 3.656-2.164 1.196-.036 2.365-.745 3.352-2.005-.119 2.493-.31 4.94-.566 7.296-2.012 1.485-3.711 3.627-5.192 6.54-1.982 3.934-1.764 7.546-.722 9.24.443.719 1.039 1.114 1.677 1.114 3.089 0 5.571-8.574 6.778-16.015 2.368-1.427 5.19-2.1 8.432-1.97 2.786.102 5.165.87 6.81 2.184-3.228 1.042-5.45 3.689-5.887 7.092-.23 1.737.179 3.352 1.123 4.43.85.97 2.04 1.467 3.51 1.394 1.745-.079 3.25-.773 4.354-2.008 1.363-1.523 2.02-3.786 1.849-6.372a9.2 9.2 0 0 0-.605-2.766c3.908.64 6.258 3.985 6.055 8.758-.277 5.81-5.351 9.407-9.894 9.407-2.997 0-5.196-.734-6.357-2.12-1.053-1.257-1.054-2.751-.873-3.772.029-.144.058-.27.083-.378.089-.383.158-.687-.052-.95a.644.644 0 0 0-.531-.238c-.096 0-.204.014-.386.055-1.232.36-2.479 1.573-2.479 3.194 0 2.937 3.13 6.1 10.002 6.1 7.138 0 12.435-4.33 12.885-11.1.197-3.13-.717-5.544-2.575-7.523zm-39.663-7.586c-.706-.257-1.436-1.93-.902-8.443.288-3.707.407-5.85-.485-6.815-.314-.338-.732-.51-1.243-.51-2.142 0-4.206 2.606-5.643 5.731a62.81 62.81 0 0 1 .461-6.926c2.198-1.029 3.92-2.765 5.118-5.162 1.819-3.575 1.584-7.381.411-9.294-.453-.74-1.043-1.147-1.662-1.147-2.716 0-5.229 5.687-6.433 14.522a8.746 8.746 0 0 1-3.616.078 5.491 5.491 0 0 1-.89-.236c1.645-1.01 2.795-3.107 2.914-5.475.119-1.785-.37-3.341-1.413-4.498-1.163-1.29-2.982-2.016-5.263-2.1a8.627 8.627 0 0 0-.361-.007c-4.451 0-9.152 2.405-9.529 6.991-.385 4.035 3.193 6.385 6.653 8.659l.694.457c3.307 2.218 6.235 4.527 5.763 8.347-.383 3.135-4.333 5.658-8.542 5.332-2.141-.168-3.986-1.078-5.196-2.563-1.162-1.427-1.67-3.255-1.432-5.144.266-1.975 1.129-3.487 3.093-5.41.374-.4.694-.83.507-1.26-.076-.174-.263-.487-.986-.381-.592.084-2.424.682-3.02 1.227-1.698 1.538-2.18 3.661-2.285 5.178-.237 4.214 1.929 9.557 8.814 10.745.692.118 1.396.179 2.091.179 5.606 0 10.063-3.778 10.369-8.787.271-4.696-3.352-7.34-6.772-9.45l-.375-.227c-3.318-2.01-6.453-3.908-5.965-7.635.385-2.85 3.109-4.125 5.637-4.125.179 0 .358.006.539.018 2.803.18 4.368 1.782 4.409 4.512.015 1.247-.377 2.397-1.047 3.075-.316.32-.675.503-.984.503-.446 0-.71-.385-.833-.659a3.925 3.925 0 0 1-.063-2.18l.081-.25c.147-.452.245-.75.039-1.034a.641.641 0 0 0-.54-.253c-.099 0-.214.014-.389.052-.862.215-2.184 1.076-2.288 2.588-.086 2.378 1.342 5.12 5.606 5.689 1.499.209 2.996.194 4.374-.04-.272 2.5-.447 5.15-.521 7.89-.034 1.627-.061 2.582-.081 3.298-.03 1.081-.046 1.618-.046 3.075 0 1.246.184 1.689 1.222 1.689.569 0 1.547-.478 1.596-2.208 1.03-6.823 3.849-10.595 4.576-10.633.133.197.031 1.196-.06 2.078-.098.95-.22 2.13-.25 3.55-.125 5.843 1.006 8.811 3.452 9.075 1.211.15 1.437-.403 1.482-.624.033-.153.075-.68-.786-1.062zM39.112 24.263c.359-6.57 2.573-15.468 3.662-16.826.321.863.396 4.25-.656 8.299-.591 2.397-1.78 5.738-3.006 8.527zm-8.742.488c.36-6.165 2.416-14.455 3.45-15.846.29.88.341 4.074-.64 7.848-.555 2.25-1.661 5.37-2.81 7.998zM142.29 51.94c-.566.6-1.27.916-2.038.916l-.106-.002c-.813-.016-1.452-.297-1.901-.837-.593-.714-.801-1.822-.583-3.126.4-2.603 2.284-4.494 4.95-5.001.598.962.938 2.084 1.012 3.342.118 1.967-.37 3.683-1.334 4.708zm-14.287-16.31c-.599 0-1.048-.125-1.394-.39l.064-1.027c1.053-6.795 3.108-9.673 3.748-9.673.034 0 .121 0 .244.132.457.486.869 2.161.657 5.4-.248 3.48-1.49 5.558-3.319 5.558zM16.243 48.89a3.357 3.357 0 0 1-1.092.189c-1.002 0-1.873-.485-2.33-1.297-.488-.866-.403-1.964.23-3.01.542-.876 2.266-1.913 7.354-1.997-1.041 3.441-2.442 5.497-4.162 6.115zm57.137-9.035c-1.115 7.679-2.341 10.906-2.905 11.133-.07-.007-.19-.076-.31-.25-.466-.67-.615-2.328.368-4.973a35.702 35.702 0 0 1 2.847-5.91zm46.285 14.865c-.098-.012-.193-.09-.281-.232-.485-.786-.561-3.245 1.219-6.806a15.333 15.333 0 0 1 2.143-3.214c-1.039 6.636-2.498 9.968-3.081 10.252zm-15.569-36.297c.975-6.274 2.444-9.839 2.989-10.085.034.01.158.105.292.409.457 1.033.641 3.76-.816 6.673-.63 1.26-1.456 2.266-2.465 3.003zm12.198 6.367c-.587 1.599-.773 3.568-.58 5.411.22 2.192 1.204 4.026 2.586 4.921a1.721 1.721 0 0 1-.858.255c-.512 0-.926-.322-1.183-.592-.904-.949-1.385-2.72-1.286-4.74.094-2.294.582-4.185 1.321-5.255zm4.381 4.739c-.12 2.045-.576 3.342-1.008 4.13-1.171-.72-1.665-2.502-1.726-3.914-.126-2.524.94-4.695 1.789-4.939.071 0 .149.068.203.126.468.498.899 2.148.742 4.597zM19.575 8.28a4.79 4.79 0 0 1 .835-.082c.5 0 1.166.107 1.497.618.326.503.28 1.312-.12 2.21-1.309 2.744-6.05 4.725-10.004 5.039 1.955-4.17 5.024-7.258 7.791-7.785z" fill="#fff"/></svg>