<svg id="SvgjsSvg1050" xmlns="http://www.w3.org/2000/svg" version="1.1" xmlns:xlink="http://www.w3.org/1999/xlink" xmlns:svgjs="http://svgjs.com/svgjs" width="38" height="38"><defs id="SvgjsDefs1051"></defs><path id="SvgjsPath1052" d="M185.925 1440.24C196.209 1440.24 204.54500000000002 1448.57 204.54500000000002 1458.86C204.54500000000002 1469.1399999999999 196.209 1477.4799999999998 185.925 1477.4799999999998C175.64200000000002 1477.4799999999998 167.306 1469.1399999999999 167.306 1458.86C167.306 1448.57 175.64200000000002 1440.24 185.925 1440.24ZM170.173 1458.92C170.173 1467.5900000000001 177.198 1474.6100000000001 185.865 1474.6100000000001C194.531 1474.6100000000001 201.556 1467.5900000000001 201.556 1458.92C201.556 1450.25 194.531 1443.23 185.865 1443.23C177.198 1443.23 170.173 1450.25 170.173 1458.92Z " fill="#ffffff" transform="matrix(1,0,0,1,-167,-1440)"></path></svg>