<svg id="SvgjsSvg1038" xmlns="http://www.w3.org/2000/svg" version="1.1" xmlns:xlink="http://www.w3.org/1999/xlink" xmlns:svgjs="http://svgjs.com/svgjs" width="32" height="32"><defs id="SvgjsDefs1039"></defs><path id="SvgjsPath1040" d="M136.865 2372.23C145.531 2372.23 152.556 2379.25 152.556 2387.92C152.556 2396.59 145.531 2403.61 136.865 2403.61C128.198 2403.61 121.173 2396.59 121.173 2387.92C121.173 2379.25 128.198 2372.23 136.865 2372.23ZM137.638 2397.22L137.638 2387.93L140.381 2387.93L140.666 2384.8399999999997L137.638 2384.8399999999997L137.643 2382.9799999999996C137.643 2382.0899999999997 137.728 2381.7199999999993 139.01 2381.7199999999993L140.774 2381.7199999999993L140.774 2378.2999999999993L137.982 2378.2999999999993C134.688 2378.2999999999993 133.9 2379.8399999999992 133.9 2382.6399999999994L133.9 2384.8399999999992L132.011 2384.8399999999992L132.011 2387.9299999999994L133.9 2387.9299999999994L133.9 2397.2199999999993Z " fill="#ffffff" transform="matrix(1,0,0,1,-121,-2372)"></path></svg>