<svg id="SvgjsSvg1035" xmlns="http://www.w3.org/2000/svg" version="1.1" xmlns:xlink="http://www.w3.org/1999/xlink" xmlns:svgjs="http://svgjs.com/svgjs" width="32" height="32"><defs id="SvgjsDefs1036"></defs><path id="SvgjsPath1037" d="M87.8648 2372.23C96.531 2372.23 103.556 2379.25 103.556 2387.92C103.556 2396.59 96.53099999999999 2403.61 87.8648 2403.61C79.1986 2403.61 72.1731 2396.59 72.1731 2387.92C72.1731 2379.25 79.1986 2372.23 87.8648 2372.23ZM94.1363 2395.84C95.0999 2395.84 95.8811 2395.06 95.8811 2394.09L95.8811 2381.78C95.8811 2380.82 95.0999 2380.0400000000004 94.1363 2380.0400000000004L81.8088 2380.0400000000004C80.8452 2380.0400000000004 80.0639 2380.8200000000006 80.0639 2381.78L80.0633 2394.09C80.0633 2395.06 80.8446 2395.84 81.8082 2395.84ZM94.1408 2386.74L94.1408 2393.52C94.1408 2393.86 93.867 2394.13 93.5294 2394.13L82.46419999999999 2394.13C82.1266 2394.13 81.85289999999999 2393.86 81.85289999999999 2393.52L81.85289999999999 2386.74C81.85289999999999 2386.74 82.13279999999999 2386.74 83.23249999999999 2386.74C83.13009999999998 2387.1299999999997 83.07549999999999 2387.5499999999997 83.07549999999999 2387.97C83.07549999999999 2390.6899999999996 85.2789 2392.8999999999996 87.9968 2392.8999999999996C90.7148 2392.8999999999996 92.9181 2390.6899999999996 92.9181 2387.97C92.9181 2387.5499999999997 92.8635 2387.1299999999997 92.7614 2386.74C93.6442 2386.74 94.1408 2386.74 94.1408 2386.74ZM87.9976 2385.13C89.56530000000001 2385.13 91.06360000000001 2386.28 91.06360000000001 2387.9700000000003C91.06360000000001 2389.6600000000003 89.56530000000001 2390.8100000000004 87.9976 2390.8100000000004C86.4299 2390.8100000000004 85.1592 2389.5400000000004 85.1592 2387.9700000000003C85.1592 2386.4 86.4299 2385.13 87.9976 2385.13ZM91.6954 2381.82L93.56 2381.82C93.8976 2381.82 94.1713 2382.09 94.1713 2382.4300000000003L94.1713 2384.2900000000004C94.1713 2384.6300000000006 93.8976 2384.9000000000005 93.56 2384.9000000000005L91.6954 2384.9000000000005C91.35780000000001 2384.9000000000005 91.084 2384.6300000000006 91.084 2384.2900000000004L91.084 2382.4300000000003C91.084 2382.09 91.3578 2381.82 91.6954 2381.82Z " fill="#ffffff" transform="matrix(1,0,0,1,-72,-2372)"></path></svg>