<svg id="SvgjsSvg1032" xmlns="http://www.w3.org/2000/svg" version="1.1" xmlns:xlink="http://www.w3.org/1999/xlink" xmlns:svgjs="http://svgjs.com/svgjs" width="33" height="32"><defs id="SvgjsDefs1033"></defs><path id="SvgjsPath1034" d="M38.4273 2372.17C47.0936 2372.17 54.119 2379.19 54.119 2387.86C54.119 2396.52 47.0936 2403.55 38.4273 2403.55C29.761000000000003 2403.55 22.7356 2396.52 22.7356 2387.86C22.7356 2379.19 29.761000000000003 2372.17 38.4273 2372.17ZM47.5648 2382.98C46.9116 2383.27 46.209599999999995 2383.46 45.472899999999996 2383.55C46.2249 2383.1000000000004 46.802299999999995 2382.38 47.074299999999994 2381.53C46.37049999999999 2381.9500000000003 45.590999999999994 2382.25 44.76129999999999 2382.42C44.096999999999994 2381.71 43.15039999999999 2381.27 42.10269999999999 2381.27C40.09119999999999 2381.27 38.46049999999999 2382.9 38.46049999999999 2384.91C38.46049999999999 2385.2 38.49259999999999 2385.47 38.55469999999999 2385.74C35.52769999999999 2385.5899999999997 32.84389999999999 2384.14 31.04739999999999 2381.93C30.733899999999988 2382.47 30.55429999999999 2383.1 30.55429999999999 2383.77C30.55429999999999 2385.03 31.19729999999999 2386.14 32.17469999999999 2386.8C31.577599999999986 2386.78 31.015899999999988 2386.61 30.524999999999988 2386.34C30.52459999999999 2386.36 30.52459999999999 2386.3700000000003 30.52459999999999 2386.3900000000003C30.52459999999999 2388.1500000000005 31.77999999999999 2389.6200000000003 33.44629999999999 2389.9600000000005C33.14069999999999 2390.0400000000004 32.81879999999999 2390.0900000000006 32.48679999999999 2390.0900000000006C32.25199999999999 2390.0900000000006 32.02379999999999 2390.0600000000004 31.801499999999987 2390.0200000000004C32.26489999999998 2391.4700000000003 33.609999999999985 2392.5200000000004 35.20389999999999 2392.5500000000006C33.95729999999999 2393.5300000000007 32.386799999999994 2394.1100000000006 30.68029999999999 2394.1100000000006C30.386299999999988 2394.1100000000006 30.09639999999999 2394.0900000000006 29.811599999999988 2394.0600000000004C31.423399999999987 2395.0900000000006 33.33799999999999 2395.7000000000003 35.39479999999999 2395.7000000000003C42.09429999999999 2395.7000000000003 45.75789999999999 2390.15 45.75789999999999 2385.3300000000004C45.75789999999999 2385.1700000000005 45.75429999999999 2385.0200000000004 45.747299999999996 2384.8600000000006C46.458999999999996 2384.3500000000004 47.076499999999996 2383.7100000000005 47.5648 2382.9800000000005Z " fill="#ffffff" transform="matrix(1,0,0,1,-22,-2372)"></path></svg>