<svg id="SvgjsSvg1041" xmlns="http://www.w3.org/2000/svg" version="1.1" xmlns:xlink="http://www.w3.org/1999/xlink" xmlns:svgjs="http://svgjs.com/svgjs" width="32" height="32"><defs id="SvgjsDefs1042"></defs><path id="SvgjsPath1043" d="M185.865 2372.23C194.531 2372.23 201.556 2379.25 201.556 2387.92C201.556 2396.59 194.531 2403.61 185.865 2403.61C177.199 2403.61 170.173 2396.59 170.173 2387.92C170.173 2379.25 177.199 2372.23 185.865 2372.23ZM191.075 2388.28C190.571 2387.73 189.897 2387.3700000000003 189.059 2387.19L189.059 2387.12C189.642 2386.88 190.1 2386.5 190.43 2385.98C190.763 2385.46 190.929 2384.87 190.929 2384.21C190.929 2383.64 190.807 2383.13 190.567 2382.69C190.327 2382.25 189.96200000000002 2381.9 189.476 2381.64C189.027 2381.4 188.545 2381.24 188.03 2381.16C187.516 2381.0899999999997 186.758 2381.0499999999997 185.761 2381.0499999999997L180.958 2381.0499999999997L180.958 2394.64L186.4 2394.64C187.344 2394.64 188.12 2394.56 188.731 2394.39C189.346 2394.22 189.90699999999998 2393.93 190.417 2393.5299999999997C190.851 2393.1899999999996 191.194 2392.7699999999995 191.449 2392.2599999999998C191.705 2391.7499999999995 191.833 2391.16 191.833 2390.4799999999996C191.833 2389.5599999999995 191.58 2388.8199999999997 191.075 2388.2799999999997ZM188.102 2391.3C187.958 2391.5600000000004 187.734 2391.75 187.422 2391.8900000000003C187.07 2392.0400000000004 186.721 2392.1200000000003 186.382 2392.13C186.041 2392.1400000000003 185.427 2392.15 184.53900000000002 2392.15L184.35500000000002 2392.15L184.35500000000002 2388.75L184.985 2388.75C185.59300000000002 2388.75 186.079 2388.75 186.441 2388.76C186.802 2388.7700000000004 187.088 2388.8100000000004 187.294 2388.8900000000003C187.63400000000001 2389.01 187.89000000000001 2389.1900000000005 188.061 2389.4300000000003C188.233 2389.67 188.316 2390.0000000000005 188.316 2390.42C188.316 2390.7400000000002 188.245 2391.04 188.102 2391.3ZM187.46 2384.89C187.46 2385.19 187.406 2385.45 187.303 2385.68C187.201 2385.8999999999996 187.011 2386.08 186.74 2386.21C186.49 2386.32 186.247 2386.39 186.014 2386.4C185.779 2386.4100000000003 185.36800000000002 2386.42 184.785 2386.42L184.355 2386.42L184.355 2383.54L184.59199999999998 2383.54C185.2 2383.54 185.658 2383.55 185.96699999999998 2383.55C186.27499999999998 2383.5600000000004 186.54 2383.6200000000003 186.76399999999998 2383.7200000000003C187.005 2383.82 187.17899999999997 2383.9900000000002 187.29099999999997 2384.2200000000003C187.40399999999997 2384.4500000000003 187.45999999999998 2384.67 187.45999999999998 2384.8900000000003Z " fill="#ffffff" transform="matrix(1,0,0,1,-170,-2372)"></path></svg>