<svg xmlns="http://www.w3.org/2000/svg" width="32" height="32"><path d="M15.865.23c8.666 0 15.691 7.02 15.691 15.69s-7.025 15.69-15.691 15.69S.173 24.59.173 15.92 7.2.23 15.865.23zm6.271 23.61c.964 0 1.745-.78 1.745-1.75V9.78c0-.96-.781-1.74-1.745-1.74H9.81c-.964 0-1.745.78-1.745 1.74v12.31c0 .97.78 1.75 1.744 1.75zm.005-9.1v6.78c0 .34-.274.61-.612.61H10.464a.609.609 0 0 1-.611-.61v-6.78h1.38a4.927 4.927 0 0 0 4.764 6.16 4.927 4.927 0 0 0 4.764-6.16h1.38zm-6.143-1.61c1.567 0 3.066 1.15 3.066 2.84s-1.499 2.84-3.066 2.84a2.838 2.838 0 0 1-2.839-2.84c0-1.57 1.27-2.84 2.839-2.84zm3.697-3.31h1.865c.338 0 .611.27.611.61v1.86c0 .34-.273.61-.611.61h-1.865a.609.609 0 0 1-.611-.61v-1.86c0-.34.274-.61.611-.61z" fill="#fff"/></svg>