<svg xmlns="http://www.w3.org/2000/svg" width="33" height="32"><path d="M16.427.17c8.667 0 15.692 7.02 15.692 15.69 0 8.66-7.025 15.69-15.692 15.69C7.761 31.55.736 24.52.736 15.86.736 7.19 7.76.17 16.427.17zm9.138 10.81a7.33 7.33 0 0 1-2.092.57 3.663 3.663 0 0 0 1.601-2.02c-.704.42-1.483.72-2.313.89a3.629 3.629 0 0 0-2.658-1.15 3.641 3.641 0 0 0-3.548 4.47 10.318 10.318 0 0 1-7.508-3.81 3.657 3.657 0 0 0 1.128 4.87 3.68 3.68 0 0 1-1.65-.46v.05a3.65 3.65 0 0 0 2.921 3.57c-.305.08-.627.13-.96.13a3.86 3.86 0 0 1-.685-.07 3.643 3.643 0 0 0 3.403 2.53 7.29 7.29 0 0 1-4.524 1.56 8.26 8.26 0 0 1-.868-.05 10.341 10.341 0 0 0 5.583 1.64c6.7 0 10.363-5.55 10.363-10.37 0-.16-.004-.31-.01-.47a7.328 7.328 0 0 0 1.817-1.88z" fill="#fff"/></svg>