<svg xmlns="http://www.w3.org/2000/svg" width="32" height="32"><path d="M15.865.23c8.666 0 15.691 7.02 15.691 15.69s-7.025 15.69-15.691 15.69S.173 24.59.173 15.92 7.199.23 15.865.23zm5.21 16.05c-.504-.55-1.178-.91-2.016-1.09v-.07a2.881 2.881 0 0 0 1.371-1.14 3.21 3.21 0 0 0 .499-1.77c0-.57-.122-1.08-.362-1.52-.24-.44-.605-.79-1.091-1.05-.449-.24-.931-.4-1.446-.48-.514-.07-1.272-.11-2.269-.11h-4.803v13.59H16.4c.944 0 1.72-.08 2.331-.25a4.774 4.774 0 0 0 1.686-.86c.434-.34.777-.76 1.032-1.27.256-.51.384-1.1.384-1.78 0-.92-.253-1.66-.758-2.2zm-2.973 3.02c-.144.26-.368.45-.68.59-.352.15-.701.23-1.04.24-.341.01-.955.02-1.843.02h-.184v-3.4h.63c.608 0 1.094 0 1.456.01.361.01.647.05.853.13.34.12.596.3.767.54.172.24.255.57.255.99 0 .32-.071.62-.214.88zm-.642-6.41c0 .3-.054.56-.157.79-.102.22-.292.4-.563.53-.25.11-.493.18-.726.19-.235.01-.646.02-1.229.02h-.43v-2.88h.237c.608 0 1.066.01 1.375.01.308.01.573.07.797.17.241.1.415.27.527.5.113.23.169.45.169.67z" fill="#fff"/></svg>