<svg id="SvgjsSvg1047" xmlns="http://www.w3.org/2000/svg" version="1.1" xmlns:xlink="http://www.w3.org/1999/xlink" xmlns:svgjs="http://svgjs.com/svgjs" width="108" height="38"><defs id="SvgjsDefs1048"></defs><path id="SvgjsPath1049" d="M797.868 2372.3L799.803 2372.3L795.915 2381.7200000000003C795.016 2383.88 793.841 2384.61 792.579 2384.61C792.217 2384.61 791.8539999999999 2384.55 791.4899999999999 2384.4700000000003L791.4899999999999 2382.8900000000003C791.7669999999999 2382.9800000000005 792.0609999999999 2383.0200000000004 792.3369999999999 2383.0200000000004C793.2359999999999 2383.0200000000004 793.9099999999999 2382.3800000000006 794.3939999999999 2381.0800000000004L794.5669999999999 2380.6700000000005L790.6259999999999 2372.3000000000006L792.5969999999999 2372.3000000000006L795.3959999999998 2378.560000000001ZM747.272 2366.07L747.272 2357.78L748.9140000000001 2357.78L748.9140000000001 2358.8100000000004C749.363 2358.3100000000004 750.3310000000001 2357.55 751.6790000000001 2357.55C752.9240000000001 2357.55 753.7880000000001 2358.07 754.272 2358.88C754.9970000000001 2358.1600000000003 755.965 2357.55 757.1750000000001 2357.55C759.3700000000001 2357.55 760.321 2359.1800000000003 760.321 2360.8900000000003L760.321 2366.07L758.471 2366.07L758.471 2360.94C758.471 2359.87 757.832 2359.19 756.829 2359.19C755.914 2359.19 755.2049999999999 2359.8 754.7729999999999 2360.32C754.79 2360.51 754.8079999999999 2360.7000000000003 754.8079999999999 2360.8900000000003L754.8079999999999 2366.07L752.9579999999999 2366.07L752.9579999999999 2360.94C752.9579999999999 2359.87 752.3189999999998 2359.19 751.3159999999998 2359.19C750.3139999999999 2359.19 749.5529999999998 2359.92 749.1209999999998 2360.4700000000003L749.1209999999998 2366.07ZM776.662 2380.6L776.662 2372.2999999999997L778.3040000000001 2372.2999999999997L778.3040000000001 2373.3399999999997C778.753 2372.8399999999997 779.7210000000001 2372.0799999999995 781.0690000000001 2372.0799999999995C782.3130000000001 2372.0799999999995 783.177 2372.5899999999997 783.6610000000001 2373.4099999999994C784.3870000000001 2372.6799999999994 785.355 2372.0799999999995 786.565 2372.0799999999995C788.759 2372.0799999999995 789.71 2373.6999999999994 789.71 2375.4099999999994L789.71 2380.5999999999995L787.861 2380.5999999999995L787.861 2375.4599999999996C787.861 2374.3899999999994 787.221 2373.72 786.2189999999999 2373.72C785.3029999999999 2373.72 784.5939999999999 2374.3199999999997 784.1629999999999 2374.8399999999997C784.18 2375.0299999999997 784.1969999999999 2375.22 784.1969999999999 2375.41L784.1969999999999 2380.6L782.3479999999998 2380.6L782.3479999999998 2375.46C782.3479999999998 2374.39 781.7079999999999 2373.7200000000003 780.7059999999998 2373.7200000000003C779.7039999999998 2373.7200000000003 778.9429999999998 2374.44 778.5109999999997 2375.0000000000005L778.5109999999997 2380.6000000000004ZM764.875 2368.5L764.875 2380.6L763.216 2380.6L763.216 2379.2799999999997C762.576 2380.0899999999997 761.591 2380.8199999999997 760.0360000000001 2380.8199999999997C757.5300000000001 2380.8199999999997 755.923 2378.83 755.923 2376.45C755.923 2374.06 757.53 2372.08 760.0360000000001 2372.08C761.488 2372.08 762.455 2372.72 763.0260000000001 2373.37L763.0260000000001 2368.5ZM730.734 2353.97L730.734 2358.6899999999996C731.3380000000001 2358.0699999999997 732.289 2357.5499999999997 733.412 2357.5499999999997C735.504 2357.5499999999997 736.8340000000001 2358.97 736.8340000000001 2360.9399999999996L736.8340000000001 2366.0699999999997L734.985 2366.0699999999997L734.985 2361.18C734.985 2359.83 734.155 2359.19 733.0500000000001 2359.19C731.9950000000001 2359.19 731.2 2359.9 730.734 2360.58L730.734 2366.0699999999997L728.884 2366.0699999999997L728.884 2353.97ZM754.609 2379.28C754.7990000000001 2379.28 754.989 2379.23 755.162 2379.1800000000003L755.162 2380.51C754.817 2380.65 754.402 2380.7200000000003 753.9870000000001 2380.7200000000003C753.2270000000001 2380.7200000000003 752.6220000000001 2380.42 752.3280000000001 2379.7500000000005C751.5160000000001 2380.4100000000003 750.4960000000001 2380.8200000000006 749.2 2380.8200000000006C747.696 2380.8200000000006 746.296 2379.9900000000007 746.296 2378.2800000000007C746.296 2376.1500000000005 748.267 2375.5000000000005 749.995 2375.5000000000005C750.703 2375.5000000000005 751.498 2375.6000000000004 752.155 2375.7400000000002L752.155 2375.4500000000003C752.155 2374.4100000000003 751.395 2373.6800000000003 749.977 2373.6800000000003C748.75 2373.6800000000003 747.731 2373.9900000000002 746.9879999999999 2374.32L746.9879999999999 2372.63C747.645 2372.4 748.837 2372.08 750.1679999999999 2372.08C752.5179999999999 2372.08 754.0039999999999 2373.2 754.0039999999999 2375.71L754.0039999999999 2378.68C754.0039999999999 2379.14 754.281 2379.2799999999997 754.6089999999999 2379.2799999999997C754.9369999999999 2379.2799999999997 754.6089999999999 2379.2799999999997 754.6089999999999 2379.2799999999997ZM736.601 2379.28C736.791 2379.28 736.981 2379.23 737.154 2379.1800000000003L737.154 2380.51C736.808 2380.65 736.393 2380.7200000000003 735.979 2380.7200000000003C735.2180000000001 2380.7200000000003 734.613 2380.42 734.3190000000001 2379.7500000000005C733.5070000000001 2380.4100000000003 732.488 2380.8200000000006 731.191 2380.8200000000006C729.688 2380.8200000000006 728.288 2379.9900000000007 728.288 2378.2800000000007C728.288 2376.1500000000005 730.258 2375.5000000000005 731.986 2375.5000000000005C732.6949999999999 2375.5000000000005 733.49 2375.6000000000004 734.1469999999999 2375.7400000000002L734.1469999999999 2375.4500000000003C734.1469999999999 2374.4100000000003 733.386 2373.6800000000003 731.9689999999999 2373.6800000000003C730.742 2373.6800000000003 729.722 2373.9900000000002 728.9789999999999 2374.32L728.9789999999999 2372.63C729.636 2372.4 730.829 2372.08 732.1589999999999 2372.08C734.5099999999999 2372.08 735.9959999999999 2373.2 735.9959999999999 2375.71L735.9959999999999 2378.68C735.9959999999999 2379.14 736.2729999999999 2379.2799999999997 736.6009999999999 2379.2799999999997C736.9289999999999 2379.2799999999997 736.6009999999999 2379.2799999999997 736.6009999999999 2379.2799999999997ZM741.898 2354.82L741.898 2357.78L744.9060000000001 2357.78L744.9060000000001 2359.4L741.898 2359.4L741.898 2363.2000000000003C741.898 2364.2900000000004 742.399 2364.65 743.471 2364.65C744.076 2364.65 744.629 2364.53 745.147 2364.33L745.147 2365.92C744.5250000000001 2366.14 743.73 2366.28 742.918 2366.28C741.3100000000001 2366.28 740.066 2365.48 740.066 2363.55L740.066 2359.4L738.58 2359.4L738.58 2357.78L740.066 2357.78L740.066 2355.27ZM770.872 2372.08C774.173 2372.08 775.314 2374.74 774.7779999999999 2377.14L768.5389999999999 2377.14C768.7469999999998 2378.6299999999997 770.1979999999999 2379.25 771.7189999999998 2379.25C772.7209999999998 2379.25 773.6369999999998 2379.01 774.3459999999998 2378.66L774.3459999999998 2380.25C773.5859999999998 2380.61 772.5309999999997 2380.82 771.3729999999998 2380.82C768.8329999999999 2380.82 766.6719999999998 2379.3700000000003 766.6719999999998 2376.4500000000003C766.6719999999998 2373.44 768.9539999999998 2372.0800000000004 770.8719999999998 2372.0800000000004C772.7899999999998 2372.0800000000004 770.8719999999998 2372.0800000000004 770.8719999999998 2372.0800000000004ZM742.494 2372.08C743.427 2372.08 744.326 2372.2799999999997 745.052 2372.72L745.052 2374.41C744.447 2373.98 743.6 2373.72 742.753 2373.72C741.2850000000001 2373.72 739.798 2374.5 739.798 2376.45C739.798 2378.33 741.232 2379.18 742.719 2379.18C743.6 2379.18 744.4820000000001 2378.9199999999996 745.138 2378.54L745.138 2380.25C744.3430000000001 2380.63 743.445 2380.82 742.39 2380.82C740.178 2380.82 737.914 2379.4700000000003 737.914 2376.52C737.914 2373.42 740.282 2372.08 742.494 2372.08C744.706 2372.08 742.494 2372.08 742.494 2372.08ZM757.789 2376.45C757.789 2378.0699999999997 758.878 2379.2 760.364 2379.2C761.6610000000001 2379.2 762.611 2378.37 763.008 2377.45L763.008 2375.43C762.611 2374.5299999999997 761.6610000000001 2373.7 760.364 2373.7C758.878 2373.7 757.789 2374.8199999999997 757.789 2376.45ZM763 2366L763 2354L765 2354L765 2366ZM730.189 2378.16C730.189 2378.97 730.915 2379.39 731.7439999999999 2379.39C732.6259999999999 2379.39 733.4899999999999 2379.06 734.1469999999999 2378.4L734.1469999999999 2377C733.646 2376.9 732.9369999999999 2376.79 732.3489999999999 2376.79C731.295 2376.79 730.189 2377.12 730.189 2378.16C730.189 2379.2 730.189 2378.16 730.189 2378.16ZM748.197 2378.16C748.197 2378.97 748.923 2379.39 749.753 2379.39C750.634 2379.39 751.498 2379.06 752.1550000000001 2378.4L752.1550000000001 2377C751.6540000000001 2376.9 750.945 2376.79 750.3580000000001 2376.79C749.3030000000001 2376.79 748.1970000000001 2377.12 748.1970000000001 2378.16C748.1970000000001 2379.2 748.1970000000001 2378.16 748.1970000000001 2378.16ZM768.522 2375.76L773.119 2375.76C773.2230000000001 2375.03 772.773 2373.61 770.9590000000001 2373.61C769.714 2373.61 768.591 2374.36 768.522 2375.76ZM721.155 2354.05L721.155 2380.6000000000004L706.6709999999999 2389.2100000000005L692.1869999999999 2380.6000000000004L692.1869999999999 2354.05L706.6709999999999 2352.53L706.823 2352.55ZM719.261 2368.46L715.377 2370.77L715.377 2375.06L715.387 2375.06L715.387 2376.37L706.6709999999999 2381.5899999999997L698.0379999999999 2376.3999999999996L698.0499999999998 2375.0899999999997L706.6809999999998 2380.22L706.6599999999999 2378.83L698.0259999999998 2373.65L698.0389999999999 2372.33L706.6379999999999 2377.45L706.617 2376.1L694.082 2368.64L694.082 2379.52L706.671 2387.0099999999998L719.2610000000001 2379.52ZM706.6 2359.67L694.109 2367.1800000000003L706.582 2374.59L708.715 2373.31L706.621 2372.08L706.634 2370.77L709.8240000000001 2372.65L709.8480000000001 2372.63L710.845 2371.9700000000003L706.621 2369.4500000000003L706.634 2368.1400000000003L711.985 2371.32L712.905 2370.78L713.045 2370.7000000000003L713.102 2370.67L706.621 2366.81L706.634 2365.5L714.216 2370.01L715.806 2369.07L719.25 2367.04Z " fill="#ffffff" transform="matrix(1,0,0,1,-692,-2352)"></path></svg>