<svg id="SvgjsSvg1014" xmlns="http://www.w3.org/2000/svg" version="1.1" xmlns:xlink="http://www.w3.org/1999/xlink" xmlns:svgjs="http://svgjs.com/svgjs" width="21" height="20"><defs id="SvgjsDefs1015"></defs><path id="SvgjsPath1016" d="M1328.58 722.46L1327.37 731.3720000000001C1327.1899999999998 732.2940000000001 1326.35 733.0070000000001 1325.4899999999998 733.0070000000001L1314.6099999999997 733.0070000000001C1313.7499999999998 733.0070000000001 1312.9099999999996 732.2940000000001 1312.7299999999996 731.3720000000001L1311.2599999999995 721.085C1311.1199999999994 720.3530000000001 1311.1099999999994 720.109 1311.1299999999994 720.0300000000001L1308.9999999999993 720.0300000000001C1308.4499999999994 720.0300000000001 1307.9999999999993 719.5830000000001 1307.9999999999993 719.0300000000001C1307.9999999999993 718.4780000000001 1308.4499999999994 718.0300000000001 1308.9999999999993 718.0300000000001L1312.9999999999993 718.0300000000001C1313.5499999999993 718.0300000000001 1313.9999999999993 718.4780000000001 1313.9999999999993 719.0300000000001C1313.9999999999993 719.5470000000001 1313.5999999999992 719.9560000000001 1313.0999999999992 720.0100000000001L1327.0699999999993 720.0100000000001C1328.1699999999992 720.0100000000001 1328.8399999999992 721.1410000000001 1328.5799999999992 722.4600000000002ZM1325.4 730.978C1325.4 730.978 1325.4 730.9749999999999 1325.41 730.9639999999999L1326.5900000000001 722.1759999999999L1326.6200000000001 721.978L1313.42 721.978L1314.73 730.978ZM1315.25 733.986C1316.28 733.986 1317.12 734.826 1317.12 735.861C1317.12 736.896 1316.28 737.735 1315.25 737.735C1314.21 737.735 1313.37 736.896 1313.37 735.861C1313.37 734.826 1314.2099999999998 733.986 1315.25 733.986ZM1324.25 733.986C1325.28 733.986 1326.12 734.826 1326.12 735.861C1326.12 736.896 1325.28 737.735 1324.25 737.735C1323.21 737.735 1322.37 736.896 1322.37 735.861C1322.37 734.826 1323.2099999999998 733.986 1324.25 733.986Z " fill="#343434" transform="matrix(1,0,0,1,-1308,-718)"></path></svg>