<svg id="SvgjsSvg1017" xmlns="http://www.w3.org/2000/svg" version="1.1" xmlns:xlink="http://www.w3.org/1999/xlink" xmlns:svgjs="http://svgjs.com/svgjs" width="21" height="20"><defs id="SvgjsDefs1018"></defs><path id="SvgjsPath1019" d="M799.576 33.4603L798.3720000000001 42.3724C798.1880000000001 43.2941 797.3480000000001 44.0072 796.4900000000001 44.0072L785.6100000000001 44.0072C784.7510000000001 44.0072 783.9140000000001 43.2941 783.7310000000001 42.3724L782.2620000000001 32.0854C782.1160000000001 31.3531 782.105 31.1088 782.1250000000001 31.0307L780.0000000000001 31.0307C779.4470000000001 31.0307 779.0000000000001 30.583 779.0000000000001 30.0306C779.0000000000001 29.4786 779.4470000000001 29.0306 780.0000000000001 29.0306L784.0000000000001 29.0306C784.5520000000001 29.0306 785.0000000000001 29.4786 785.0000000000001 30.0306C785.0000000000001 30.5468 784.6040000000002 30.9564 784.1020000000001 31.0099L798.0670000000001 31.0099C799.1720000000001 31.0099 799.8400000000001 32.1411 799.5760000000001 33.4603ZM796.403 41.9778C796.398 41.9778 796.399 41.974900000000005 796.407 41.964200000000005L797.5930000000001 33.176500000000004C797.5930000000001 33.176500000000004 797.6210000000001 32.9778 797.624 32.9778L784.418 32.9778L785.731 41.9778ZM786.246 44.9868C787.281 44.9868 788.12 45.825900000000004 788.12 46.8611C788.12 47.8961 787.281 48.7352 786.246 48.7352C785.21 48.7352 784.371 47.8961 784.371 46.8611C784.371 45.8259 785.21 44.9868 786.246 44.9868ZM795.246 44.9868C796.281 44.9868 797.12 45.825900000000004 797.12 46.8611C797.12 47.8961 796.281 48.7352 795.246 48.7352C794.21 48.7352 793.371 47.8961 793.371 46.8611C793.371 45.8259 794.21 44.9868 795.246 44.9868Z " fill="#ffffff" transform="matrix(1,0,0,1,-779,-29)"></path></svg>