<svg id="SvgjsSvg1011" xmlns="http://www.w3.org/2000/svg" version="1.1" xmlns:xlink="http://www.w3.org/1999/xlink" xmlns:svgjs="http://svgjs.com/svgjs" width="22" height="19"><defs id="SvgjsDefs1012"></defs><path id="SvgjsPath1013" d="M686 721.968L686 721.0079999999999C686 719.3509999999999 687.343 718.0079999999999 689 718.0079999999999L700.059 718.0079999999999C701.7149999999999 718.0079999999999 703.059 719.3509999999999 703.059 721.0079999999999L703.059 733.9849999999999C703.059 735.6419999999999 701.7149999999999 736.9859999999999 700.059 736.9859999999999L689 736.9859999999999C687.343 736.9859999999999 686 735.6419999999998 686 733.9849999999999L686 732.9999999999999L688 732.9999999999999L688 734.9999999999999L701 734.9999999999999L701 719.9989999999999L688 719.9989999999999L688 721.968ZM682.995 724.901L689.024 724.901L689.024 722.1579999999999L696.051 727.4579999999999L689.024 732.7569999999998L689.024 730.0139999999998L682.995 730.0139999999998Z " fill="#353535" transform="matrix(1,0,0,1,-682,-718)"></path></svg>