<svg id="SvgjsSvg1014" xmlns="http://www.w3.org/2000/svg" version="1.1" xmlns:xlink="http://www.w3.org/1999/xlink" xmlns:svgjs="http://svgjs.com/svgjs" width="22" height="19"><defs id="SvgjsDefs1015"></defs><path id="SvgjsPath1016" d="M680 32.9686L680 32.008500000000005C680 30.351600000000005 681.343 29.008600000000005 683 29.008600000000005L694.059 29.008600000000005C695.716 29.008600000000005 697.059 30.351600000000005 697.059 32.008500000000005L697.059 44.9855C697.059 46.6425 695.716 47.985600000000005 694.059 47.985600000000005L683 47.985600000000005C681.343 47.985600000000005 680 46.642500000000005 680 44.9855L680 43.9998L682 43.9998L682 45.9997L695 45.9997L695 30.999799999999997L682 30.999799999999997L682 32.968599999999995ZM676.995 35.9011L683.024 35.9011L683.024 33.1581L690.051 38.457899999999995L683.024 43.7576L683.024 41.014599999999994L676.995 41.014599999999994Z " fill="#ffffff" transform="matrix(1,0,0,1,-676,-29)"></path></svg>