<svg id="SvgjsSvg1000" xmlns="http://www.w3.org/2000/svg" version="1.1" xmlns:xlink="http://www.w3.org/1999/xlink" xmlns:svgjs="http://svgjs.com/svgjs" width="17" height="17"><defs id="SvgjsDefs1001"></defs><path id="SvgjsPath1007" d="M379.155 729.747L378.397 729.747L378.133 729.486C379.06399999999996 728.401 379.63 726.996 379.63 725.456C379.63 722.032 376.851 719.2570000000001 373.424 719.2570000000001C369.996 719.2570000000001 367.21799999999996 722.032 367.21799999999996 725.456C367.21799999999996 728.879 369.996 731.654 373.424 731.654C374.96599999999995 731.654 376.373 731.09 377.45799999999997 730.16L377.72099999999995 730.4219999999999L377.72099999999995 731.1769999999999L382.49399999999997 735.9369999999999L383.917 734.5149999999999ZM373.424 729.747C371.051 729.747 369.12699999999995 727.8259999999999 369.12699999999995 725.4559999999999C369.12699999999995 723.0849999999999 371.05099999999993 721.1639999999999 373.424 721.1639999999999C375.79699999999997 721.1639999999999 377.71999999999997 723.0849999999999 377.71999999999997 725.4559999999999C377.71999999999997 727.8259999999999 375.79699999999997 729.747 373.424 729.747Z " fill="#333333" transform="matrix(1,0,0,1,-367,-719)"></path></svg>