<svg id="SvgjsSvg1011" xmlns="http://www.w3.org/2000/svg" version="1.1" xmlns:xlink="http://www.w3.org/1999/xlink" xmlns:svgjs="http://svgjs.com/svgjs" width="17" height="17"><defs id="SvgjsDefs1012"></defs><path id="SvgjsPath1013" d="M638.155 40.747L637.3969999999999 40.747L637.1329999999999 40.4857C638.064 39.4016 638.6299999999999 37.9958 638.6299999999999 36.4558C638.6299999999999 33.0322 635.8509999999999 30.256700000000002 632.4239999999999 30.256700000000002C628.9959999999999 30.256700000000002 626.2179999999998 33.0322 626.2179999999998 36.4558C626.2179999999998 39.8793 628.9959999999999 42.6542 632.4239999999999 42.6542C633.9659999999999 42.6542 635.3729999999998 42.089600000000004 636.4579999999999 41.160500000000006L636.7209999999999 41.42210000000001L636.7209999999999 42.17750000000001L641.4939999999999 46.93740000000001L642.9169999999999 45.515200000000014ZM632.424 40.747C630.0509999999999 40.747 628.127 38.8257 628.127 36.455799999999996C628.127 34.085499999999996 630.0509999999999 32.1643 632.424 32.1643C634.797 32.1643 636.72 34.085499999999996 636.72 36.455799999999996C636.72 38.8257 634.797 40.747 632.424 40.747Z " fill="#ffffff" transform="matrix(1,0,0,1,-626,-30)"></path></svg>