<svg id="SvgjsSvg1035" xmlns="http://www.w3.org/2000/svg" version="1.1" xmlns:xlink="http://www.w3.org/1999/xlink" xmlns:svgjs="http://svgjs.com/svgjs" width="26.701000000000022" height="27.34999999999991"><defs id="SvgjsDefs1036"><filter id="SvgjsFilter1038" width="200%" height="200%" x="-50%" y="-50%"><feGaussianBlur id="SvgjsFeGaussianBlur1039" stdDeviation="1 " result="SvgjsFeGaussianBlur1039Out" in="SourceGraphic"></feGaussianBlur></filter></defs><path id="SvgjsPath1037" d="M629.16 2270.65C635.429 2270.65 640.511 2275.73 640.511 2282C640.511 2288.27 635.429 2293.35 629.16 2293.35C622.8919999999999 2293.35 617.81 2288.27 617.81 2282C617.81 2275.73 622.8919999999999 2270.65 629.16 2270.65Z " fill="#000000" fill-opacity="0.1" filter="url(#SvgjsFilter1038)" transform="matrix(1,0,0,1,-615.6495,-2268)"></path><path id="SvgjsPath1040" d="M629.16 2268.65C635.429 2268.65 640.511 2273.73 640.511 2280C640.511 2286.27 635.429 2291.35 629.16 2291.35C622.8919999999999 2291.35 617.81 2286.27 617.81 2280C617.81 2273.73 622.8919999999999 2268.65 629.16 2268.65Z " fill="#f8f7f4" transform="matrix(1,0,0,1,-615.6495,-2268)"></path></svg>