<svg id="SvgjsSvg1029" xmlns="http://www.w3.org/2000/svg" version="1.1" xmlns:xlink="http://www.w3.org/1999/xlink" xmlns:svgjs="http://svgjs.com/svgjs" width="24.230000000000018" height="25.11499999999978"><defs id="SvgjsDefs1030"><filter id="SvgjsFilter1032" width="200%" height="200%" x="-50%" y="-50%"><feGaussianBlur id="SvgjsFeGaussianBlur1033" stdDeviation="1 " result="SvgjsFeGaussianBlur1033Out" in="SourceGraphic"></feGaussianBlur></filter></defs><path id="SvgjsPath1031" d="M726.84 2271.88C732.426 2271.88 736.955 2276.4100000000003 736.955 2282C736.955 2287.59 732.426 2292.11 726.84 2292.11C721.253 2292.11 716.725 2287.59 716.725 2282C716.725 2276.41 721.253 2271.88 726.84 2271.88Z " fill="#000000" fill-opacity="0.1" filter="url(#SvgjsFilter1032)" transform="matrix(1,0,0,1,-714.385,-2269)"></path><path id="SvgjsPath1034" d="M726.84 2269.88C732.426 2269.88 736.955 2274.4100000000003 736.955 2280C736.955 2285.59 732.426 2290.11 726.84 2290.11C721.253 2290.11 716.725 2285.59 716.725 2280C716.725 2274.41 721.253 2269.88 726.84 2269.88Z " fill="#f8f7f4" transform="matrix(1,0,0,1,-714.385,-2269)"></path></svg>